<mxfile host="Electron" agent="Mozilla/5.0 (Windows NT 10.0; Win64; x64) AppleWebKit/537.36 (KHTML, like Gecko) draw.io/28.0.6 Chrome/138.0.7204.100 Electron/37.2.3 Safari/537.36" version="28.0.6" pages="6">
  <diagram name="Diagrama de bloques - Arquitectura modular - 20250728" id="MEG_cbzWBPTTH5SXCxHo">
    <mxGraphModel dx="983" dy="603" grid="1" gridSize="10" guides="1" tooltips="1" connect="1" arrows="1" fold="1" page="1" pageScale="1" pageWidth="827" pageHeight="1169" math="0" shadow="0">
      <root>
        <mxCell id="f_i-K1Z-ysXLhmoM3pZt-0" />
        <mxCell id="f_i-K1Z-ysXLhmoM3pZt-1" parent="f_i-K1Z-ysXLhmoM3pZt-0" />
        <mxCell id="f_i-K1Z-ysXLhmoM3pZt-18" value="Plataforma de&lt;div&gt;&amp;nbsp;monitoreo&lt;/div&gt;" style="verticalAlign=top;align=left;spacingTop=8;spacingLeft=2;spacingRight=12;shape=cube;size=10;direction=south;fontStyle=4;html=1;whiteSpace=wrap;shadow=1;fillColor=#E8E8E8;strokeColor=#6c8ebf;movable=1;resizable=1;rotatable=1;deletable=1;editable=1;locked=0;connectable=1;" vertex="1" parent="f_i-K1Z-ysXLhmoM3pZt-1">
          <mxGeometry x="30" y="124" width="500" height="326" as="geometry" />
        </mxCell>
        <mxCell id="2E-rMkRNf5AgmyVabMKR-10" style="edgeStyle=orthogonalEdgeStyle;rounded=0;orthogonalLoop=1;jettySize=auto;html=1;endArrow=none;endFill=0;startArrow=classic;startFill=1;" edge="1" parent="f_i-K1Z-ysXLhmoM3pZt-1" source="f_i-K1Z-ysXLhmoM3pZt-20" target="f_i-K1Z-ysXLhmoM3pZt-51">
          <mxGeometry relative="1" as="geometry" />
        </mxCell>
        <mxCell id="f_i-K1Z-ysXLhmoM3pZt-20" value="Utilidades" style="verticalAlign=middle;align=center;spacingTop=8;spacingLeft=2;spacingRight=12;shape=cube;size=10;direction=south;fontStyle=4;html=1;whiteSpace=wrap;shadow=1;fillColor=#dae8fc;strokeColor=#6c8ebf;movable=1;resizable=1;rotatable=1;deletable=1;editable=1;locked=0;connectable=1;" vertex="1" parent="f_i-K1Z-ysXLhmoM3pZt-1">
          <mxGeometry x="235" y="250" width="90" height="50" as="geometry" />
        </mxCell>
        <mxCell id="2E-rMkRNf5AgmyVabMKR-14" style="rounded=0;orthogonalLoop=1;jettySize=auto;html=1;endArrow=none;endFill=0;startArrow=classic;startFill=1;" edge="1" parent="f_i-K1Z-ysXLhmoM3pZt-1" source="f_i-K1Z-ysXLhmoM3pZt-21" target="f_i-K1Z-ysXLhmoM3pZt-20">
          <mxGeometry relative="1" as="geometry" />
        </mxCell>
        <mxCell id="f_i-K1Z-ysXLhmoM3pZt-21" value="Repositorio de objetos" style="verticalAlign=middle;align=center;spacingTop=8;spacingLeft=2;spacingRight=12;shape=cube;size=10;direction=south;fontStyle=4;html=1;whiteSpace=wrap;shadow=1;fillColor=#dae8fc;strokeColor=#6c8ebf;movable=1;resizable=1;rotatable=1;deletable=1;editable=1;locked=0;connectable=1;" vertex="1" parent="f_i-K1Z-ysXLhmoM3pZt-1">
          <mxGeometry x="170" y="140" width="95" height="50" as="geometry" />
        </mxCell>
        <mxCell id="2E-rMkRNf5AgmyVabMKR-6" style="rounded=0;orthogonalLoop=1;jettySize=auto;html=1;" edge="1" parent="f_i-K1Z-ysXLhmoM3pZt-1" source="f_i-K1Z-ysXLhmoM3pZt-25" target="f_i-K1Z-ysXLhmoM3pZt-20">
          <mxGeometry relative="1" as="geometry" />
        </mxCell>
        <mxCell id="2E-rMkRNf5AgmyVabMKR-9" style="edgeStyle=orthogonalEdgeStyle;rounded=0;orthogonalLoop=1;jettySize=auto;html=1;startArrow=classic;startFill=1;endArrow=none;endFill=0;" edge="1" parent="f_i-K1Z-ysXLhmoM3pZt-1" source="f_i-K1Z-ysXLhmoM3pZt-25" target="f_i-K1Z-ysXLhmoM3pZt-28">
          <mxGeometry relative="1" as="geometry" />
        </mxCell>
        <mxCell id="f_i-K1Z-ysXLhmoM3pZt-25" value="IA" style="verticalAlign=middle;align=center;spacingTop=8;spacingLeft=2;spacingRight=12;shape=cube;size=10;direction=south;fontStyle=4;html=1;whiteSpace=wrap;shadow=1;fillColor=#dae8fc;strokeColor=#6c8ebf;movable=1;resizable=1;rotatable=1;deletable=1;editable=1;locked=0;connectable=1;" vertex="1" parent="f_i-K1Z-ysXLhmoM3pZt-1">
          <mxGeometry x="414" y="140" width="95" height="50" as="geometry" />
        </mxCell>
        <mxCell id="2E-rMkRNf5AgmyVabMKR-12" style="rounded=0;orthogonalLoop=1;jettySize=auto;html=1;startArrow=classic;startFill=1;endArrow=none;endFill=0;" edge="1" parent="f_i-K1Z-ysXLhmoM3pZt-1" source="f_i-K1Z-ysXLhmoM3pZt-26" target="f_i-K1Z-ysXLhmoM3pZt-20">
          <mxGeometry relative="1" as="geometry" />
        </mxCell>
        <mxCell id="f_i-K1Z-ysXLhmoM3pZt-26" value="Gestor de datos" style="verticalAlign=middle;align=center;spacingTop=8;spacingLeft=2;spacingRight=12;shape=cube;size=10;direction=south;fontStyle=4;html=1;whiteSpace=wrap;shadow=1;fillColor=#dae8fc;strokeColor=#6c8ebf;movable=1;resizable=1;rotatable=1;deletable=1;editable=1;locked=0;connectable=1;" vertex="1" parent="f_i-K1Z-ysXLhmoM3pZt-1">
          <mxGeometry x="40" y="380" width="95" height="50" as="geometry" />
        </mxCell>
        <mxCell id="2E-rMkRNf5AgmyVabMKR-8" style="edgeStyle=orthogonalEdgeStyle;rounded=0;orthogonalLoop=1;jettySize=auto;html=1;" edge="1" parent="f_i-K1Z-ysXLhmoM3pZt-1" source="f_i-K1Z-ysXLhmoM3pZt-28" target="f_i-K1Z-ysXLhmoM3pZt-38">
          <mxGeometry relative="1" as="geometry" />
        </mxCell>
        <mxCell id="2E-rMkRNf5AgmyVabMKR-11" style="edgeStyle=orthogonalEdgeStyle;rounded=0;orthogonalLoop=1;jettySize=auto;html=1;" edge="1" parent="f_i-K1Z-ysXLhmoM3pZt-1" source="f_i-K1Z-ysXLhmoM3pZt-28" target="f_i-K1Z-ysXLhmoM3pZt-20">
          <mxGeometry relative="1" as="geometry" />
        </mxCell>
        <mxCell id="f_i-K1Z-ysXLhmoM3pZt-28" value="AplicaciÃ³n&lt;div&gt;web&lt;/div&gt;" style="verticalAlign=middle;align=center;spacingTop=8;spacingLeft=2;spacingRight=12;shape=cube;size=10;direction=south;fontStyle=4;html=1;whiteSpace=wrap;shadow=1;fillColor=#f8cecc;strokeColor=#b85450;movable=1;resizable=1;rotatable=1;deletable=1;editable=1;locked=0;connectable=1;" vertex="1" parent="f_i-K1Z-ysXLhmoM3pZt-1">
          <mxGeometry x="414" y="250" width="95" height="50" as="geometry" />
        </mxCell>
        <mxCell id="2E-rMkRNf5AgmyVabMKR-3" style="edgeStyle=orthogonalEdgeStyle;rounded=0;orthogonalLoop=1;jettySize=auto;html=1;" edge="1" parent="f_i-K1Z-ysXLhmoM3pZt-1" source="f_i-K1Z-ysXLhmoM3pZt-42" target="f_i-K1Z-ysXLhmoM3pZt-26">
          <mxGeometry relative="1" as="geometry" />
        </mxCell>
        <mxCell id="2E-rMkRNf5AgmyVabMKR-4" style="rounded=0;orthogonalLoop=1;jettySize=auto;html=1;" edge="1" parent="f_i-K1Z-ysXLhmoM3pZt-1" source="f_i-K1Z-ysXLhmoM3pZt-42" target="f_i-K1Z-ysXLhmoM3pZt-21">
          <mxGeometry relative="1" as="geometry" />
        </mxCell>
        <mxCell id="f_i-K1Z-ysXLhmoM3pZt-42" value="Respaldo" style="verticalAlign=middle;align=center;spacingTop=8;spacingLeft=2;spacingRight=12;shape=cube;size=10;direction=south;fontStyle=4;html=1;whiteSpace=wrap;shadow=1;fillColor=#dae8fc;strokeColor=#6c8ebf;movable=1;resizable=1;rotatable=1;deletable=1;editable=1;locked=0;connectable=1;" vertex="1" parent="f_i-K1Z-ysXLhmoM3pZt-1">
          <mxGeometry x="40" y="250" width="95" height="50" as="geometry" />
        </mxCell>
        <mxCell id="2E-rMkRNf5AgmyVabMKR-5" style="edgeStyle=orthogonalEdgeStyle;rounded=0;orthogonalLoop=1;jettySize=auto;html=1;" edge="1" parent="f_i-K1Z-ysXLhmoM3pZt-1" source="f_i-K1Z-ysXLhmoM3pZt-47" target="f_i-K1Z-ysXLhmoM3pZt-21">
          <mxGeometry relative="1" as="geometry" />
        </mxCell>
        <mxCell id="2E-rMkRNf5AgmyVabMKR-7" style="rounded=0;orthogonalLoop=1;jettySize=auto;html=1;" edge="1" parent="f_i-K1Z-ysXLhmoM3pZt-1" source="f_i-K1Z-ysXLhmoM3pZt-47" target="f_i-K1Z-ysXLhmoM3pZt-38">
          <mxGeometry relative="1" as="geometry" />
        </mxCell>
        <mxCell id="2E-rMkRNf5AgmyVabMKR-13" style="rounded=0;orthogonalLoop=1;jettySize=auto;html=1;" edge="1" parent="f_i-K1Z-ysXLhmoM3pZt-1" source="f_i-K1Z-ysXLhmoM3pZt-47" target="f_i-K1Z-ysXLhmoM3pZt-20">
          <mxGeometry relative="1" as="geometry" />
        </mxCell>
        <mxCell id="f_i-K1Z-ysXLhmoM3pZt-47" value="Etiquetado de datos" style="verticalAlign=middle;align=center;spacingTop=8;spacingLeft=2;spacingRight=12;shape=cube;size=10;direction=south;fontStyle=4;html=1;whiteSpace=wrap;shadow=1;fillColor=#f8cecc;strokeColor=#b85450;movable=1;resizable=1;rotatable=1;deletable=1;editable=1;locked=0;connectable=1;" vertex="1" parent="f_i-K1Z-ysXLhmoM3pZt-1">
          <mxGeometry x="290" y="140" width="95" height="50" as="geometry" />
        </mxCell>
        <mxCell id="2E-rMkRNf5AgmyVabMKR-26" style="rounded=0;orthogonalLoop=1;jettySize=auto;html=1;" edge="1" parent="f_i-K1Z-ysXLhmoM3pZt-1" source="f_i-K1Z-ysXLhmoM3pZt-51" target="f_i-K1Z-ysXLhmoM3pZt-38">
          <mxGeometry relative="1" as="geometry" />
        </mxCell>
        <mxCell id="f_i-K1Z-ysXLhmoM3pZt-51" value="Calidad de datos" style="verticalAlign=middle;align=center;spacingTop=8;spacingLeft=2;spacingRight=12;shape=cube;size=10;direction=south;fontStyle=4;html=1;whiteSpace=wrap;shadow=1;fillColor=#f8cecc;strokeColor=#b85450;movable=1;resizable=1;rotatable=1;deletable=1;editable=1;locked=0;connectable=1;" vertex="1" parent="f_i-K1Z-ysXLhmoM3pZt-1">
          <mxGeometry x="232.5" y="380" width="95" height="50" as="geometry" />
        </mxCell>
        <mxCell id="f_i-K1Z-ysXLhmoM3pZt-38" value="Seguridad" style="verticalAlign=middle;align=center;spacingTop=8;spacingLeft=2;spacingRight=12;shape=cube;size=10;direction=south;fontStyle=4;html=1;whiteSpace=wrap;shadow=1;fillColor=#dae8fc;strokeColor=#6c8ebf;movable=1;resizable=1;rotatable=1;deletable=1;editable=1;locked=0;connectable=1;" vertex="1" parent="f_i-K1Z-ysXLhmoM3pZt-1">
          <mxGeometry x="414" y="380" width="95" height="50" as="geometry" />
        </mxCell>
        <mxCell id="2E-rMkRNf5AgmyVabMKR-15" value="&lt;font style=&quot;font-size: 8px;&quot;&gt;Respalda&lt;/font&gt;" style="text;html=1;align=center;verticalAlign=middle;whiteSpace=wrap;rounded=0;" vertex="1" parent="f_i-K1Z-ysXLhmoM3pZt-1">
          <mxGeometry x="90" y="230" width="35" height="10" as="geometry" />
        </mxCell>
        <mxCell id="2E-rMkRNf5AgmyVabMKR-16" value="&lt;font style=&quot;font-size: 8px;&quot;&gt;Respalda&lt;/font&gt;" style="text;html=1;align=center;verticalAlign=middle;whiteSpace=wrap;rounded=0;" vertex="1" parent="f_i-K1Z-ysXLhmoM3pZt-1">
          <mxGeometry x="90" y="310" width="35" height="10" as="geometry" />
        </mxCell>
        <mxCell id="2E-rMkRNf5AgmyVabMKR-17" value="&lt;span style=&quot;font-size: 8px;&quot;&gt;Utiliza&lt;/span&gt;" style="text;html=1;align=center;verticalAlign=middle;whiteSpace=wrap;rounded=0;" vertex="1" parent="f_i-K1Z-ysXLhmoM3pZt-1">
          <mxGeometry x="220" y="220" width="35" height="10" as="geometry" />
        </mxCell>
        <mxCell id="2E-rMkRNf5AgmyVabMKR-18" value="&lt;span style=&quot;font-size: 8px;&quot;&gt;Obtiene&lt;/span&gt;" style="text;html=1;align=center;verticalAlign=middle;whiteSpace=wrap;rounded=0;rotation=-90;" vertex="1" parent="f_i-K1Z-ysXLhmoM3pZt-1">
          <mxGeometry x="262.5" y="180" width="35" height="10" as="geometry" />
        </mxCell>
        <mxCell id="2E-rMkRNf5AgmyVabMKR-19" value="&lt;span style=&quot;font-size: 8px;&quot;&gt;Utiliza&lt;/span&gt;" style="text;html=1;align=center;verticalAlign=middle;whiteSpace=wrap;rounded=0;rotation=0;" vertex="1" parent="f_i-K1Z-ysXLhmoM3pZt-1">
          <mxGeometry x="280" y="210" width="35" height="10" as="geometry" />
        </mxCell>
        <mxCell id="2E-rMkRNf5AgmyVabMKR-21" value="&lt;span style=&quot;font-size: 8px;&quot;&gt;Utiliza&lt;/span&gt;" style="text;html=1;align=center;verticalAlign=middle;whiteSpace=wrap;rounded=0;rotation=0;" vertex="1" parent="f_i-K1Z-ysXLhmoM3pZt-1">
          <mxGeometry x="325" y="220" width="35" height="10" as="geometry" />
        </mxCell>
        <mxCell id="2E-rMkRNf5AgmyVabMKR-22" value="&lt;span style=&quot;font-size: 8px;&quot;&gt;Autentica&lt;/span&gt;" style="text;html=1;align=center;verticalAlign=middle;whiteSpace=wrap;rounded=0;rotation=0;" vertex="1" parent="f_i-K1Z-ysXLhmoM3pZt-1">
          <mxGeometry x="350" y="390" width="35" height="10" as="geometry" />
        </mxCell>
        <mxCell id="2E-rMkRNf5AgmyVabMKR-23" value="&lt;span style=&quot;font-size: 8px;&quot;&gt;Autentica&lt;/span&gt;" style="text;html=1;align=center;verticalAlign=middle;whiteSpace=wrap;rounded=0;rotation=0;" vertex="1" parent="f_i-K1Z-ysXLhmoM3pZt-1">
          <mxGeometry x="470" y="310" width="35" height="10" as="geometry" />
        </mxCell>
        <mxCell id="2E-rMkRNf5AgmyVabMKR-24" value="&lt;span style=&quot;font-size: 8px;&quot;&gt;Utiliza&lt;/span&gt;" style="text;html=1;align=center;verticalAlign=middle;whiteSpace=wrap;rounded=0;rotation=0;" vertex="1" parent="f_i-K1Z-ysXLhmoM3pZt-1">
          <mxGeometry x="325" y="260" width="35" height="10" as="geometry" />
        </mxCell>
        <mxCell id="2E-rMkRNf5AgmyVabMKR-25" value="&lt;span style=&quot;font-size: 8px;&quot;&gt;Utiliza&lt;/span&gt;" style="text;html=1;align=center;verticalAlign=middle;whiteSpace=wrap;rounded=0;rotation=0;" vertex="1" parent="f_i-K1Z-ysXLhmoM3pZt-1">
          <mxGeometry x="470" y="210" width="35" height="10" as="geometry" />
        </mxCell>
        <mxCell id="2E-rMkRNf5AgmyVabMKR-27" value="&lt;span style=&quot;font-size: 8px;&quot;&gt;Autentica&lt;/span&gt;" style="text;html=1;align=center;verticalAlign=middle;whiteSpace=wrap;rounded=0;rotation=0;" vertex="1" parent="f_i-K1Z-ysXLhmoM3pZt-1">
          <mxGeometry x="390" y="330" width="35" height="10" as="geometry" />
        </mxCell>
        <mxCell id="2E-rMkRNf5AgmyVabMKR-29" value="&lt;span style=&quot;font-size: 8px;&quot;&gt;Utiliza&lt;/span&gt;" style="text;html=1;align=center;verticalAlign=middle;whiteSpace=wrap;rounded=0;" vertex="1" parent="f_i-K1Z-ysXLhmoM3pZt-1">
          <mxGeometry x="280" y="350" width="35" height="10" as="geometry" />
        </mxCell>
        <mxCell id="2E-rMkRNf5AgmyVabMKR-30" value="&lt;span style=&quot;font-size: 8px;&quot;&gt;Utiliza&lt;/span&gt;" style="text;html=1;align=center;verticalAlign=middle;whiteSpace=wrap;rounded=0;" vertex="1" parent="f_i-K1Z-ysXLhmoM3pZt-1">
          <mxGeometry x="190" y="310" width="35" height="10" as="geometry" />
        </mxCell>
      </root>
    </mxGraphModel>
  </diagram>
  <diagram id="m68ucVWeR6zQB1FBilZQ" name="Diagrama de bloques - Modulos - Final">
    <mxGraphModel dx="1426" dy="875" grid="1" gridSize="10" guides="1" tooltips="1" connect="1" arrows="1" fold="1" page="1" pageScale="1" pageWidth="827" pageHeight="1169" math="0" shadow="0">
      <root>
        <mxCell id="0" />
        <mxCell id="1" parent="0" />
        <mxCell id="6j0EwPkTre_6MSGywetc-1" value="" style="shape=link;html=1;rounded=0;shadow=1;" parent="1" edge="1">
          <mxGeometry width="100" relative="1" as="geometry">
            <mxPoint x="20" y="480" as="sourcePoint" />
            <mxPoint x="800" y="480" as="targetPoint" />
          </mxGeometry>
        </mxCell>
        <mxCell id="6j0EwPkTre_6MSGywetc-2" value="" style="endArrow=none;dashed=1;html=1;dashPattern=1 3;strokeWidth=2;rounded=0;shadow=1;" parent="1" edge="1">
          <mxGeometry width="50" height="50" relative="1" as="geometry">
            <mxPoint x="560" y="470" as="sourcePoint" />
            <mxPoint x="560" y="76" as="targetPoint" />
          </mxGeometry>
        </mxCell>
        <mxCell id="6j0EwPkTre_6MSGywetc-3" value="" style="endArrow=none;dashed=1;html=1;dashPattern=1 3;strokeWidth=2;rounded=0;shadow=1;strokeColor=default;" parent="1" edge="1">
          <mxGeometry width="50" height="50" relative="1" as="geometry">
            <mxPoint x="710" y="480" as="sourcePoint" />
            <mxPoint x="710" y="76" as="targetPoint" />
          </mxGeometry>
        </mxCell>
        <mxCell id="6j0EwPkTre_6MSGywetc-4" value="&lt;font style=&quot;font-size: 8px;&quot;&gt;Usuario&lt;/font&gt;&lt;div style=&quot;font-size: 8px;&quot;&gt;&lt;font style=&quot;font-size: 8px;&quot;&gt;geomÃ¡tica&lt;/font&gt;&lt;/div&gt;" style="shape=umlActor;html=1;verticalLabelPosition=bottom;verticalAlign=top;align=center;shadow=1;gradientColor=default;textShadow=1;fontStyle=1" parent="1" vertex="1">
          <mxGeometry x="615" y="210" width="30" height="60" as="geometry" />
        </mxCell>
        <mxCell id="6j0EwPkTre_6MSGywetc-5" value="&lt;font style=&quot;font-size: 8px;&quot;&gt;Usuario&lt;/font&gt;&lt;div style=&quot;font-size: 8px;&quot;&gt;&lt;font style=&quot;font-size: 8px;&quot;&gt;&lt;font style=&quot;font-size: 8px;&quot;&gt;Ã¡reas&amp;nbsp;&lt;/font&gt;&lt;span style=&quot;background-color: initial;&quot;&gt;verdes&lt;/span&gt;&lt;/font&gt;&lt;/div&gt;" style="shape=umlActor;html=1;verticalLabelPosition=bottom;verticalAlign=top;align=center;shadow=1;gradientColor=default;textShadow=1;fontStyle=1" parent="1" vertex="1">
          <mxGeometry x="745" y="380" width="30" height="60" as="geometry" />
        </mxCell>
        <mxCell id="6j0EwPkTre_6MSGywetc-6" style="rounded=0;orthogonalLoop=1;jettySize=auto;html=1;entryX=0.5;entryY=0.5;entryDx=0;entryDy=0;entryPerimeter=0;edgeStyle=orthogonalEdgeStyle;shadow=1;" parent="1" source="6j0EwPkTre_6MSGywetc-5" target="6j0EwPkTre_6MSGywetc-4" edge="1">
          <mxGeometry relative="1" as="geometry">
            <Array as="points">
              <mxPoint x="765" y="240" />
            </Array>
          </mxGeometry>
        </mxCell>
        <mxCell id="6j0EwPkTre_6MSGywetc-7" value="&lt;font style=&quot;font-size: 8px;&quot;&gt;Solicita&lt;/font&gt;&lt;div style=&quot;font-size: 8px;&quot;&gt;&lt;font style=&quot;font-size: 8px;&quot;&gt;imÃ¡genes&lt;/font&gt;&lt;/div&gt;&lt;div style=&quot;font-size: 8px;&quot;&gt;&lt;font style=&quot;font-size: 8px;&quot;&gt;de&lt;/font&gt;&lt;/div&gt;&lt;div style=&quot;font-size: 8px;&quot;&gt;&lt;font style=&quot;font-size: 8px;&quot;&gt;zona especÃ­fica&lt;/font&gt;&lt;/div&gt;" style="edgeLabel;html=1;align=center;verticalAlign=middle;resizable=0;points=[];shadow=1;labelBackgroundColor=none;labelBorderColor=none;textShadow=1;fontStyle=1" parent="6j0EwPkTre_6MSGywetc-6" vertex="1" connectable="0">
          <mxGeometry x="-0.3947" y="-5" relative="1" as="geometry">
            <mxPoint x="-20" y="-82" as="offset" />
          </mxGeometry>
        </mxCell>
        <mxCell id="6j0EwPkTre_6MSGywetc-8" style="edgeStyle=orthogonalEdgeStyle;rounded=0;orthogonalLoop=1;jettySize=auto;html=1;shadow=1;" parent="1" source="6j0EwPkTre_6MSGywetc-4" edge="1">
          <mxGeometry relative="1" as="geometry">
            <Array as="points">
              <mxPoint x="630" y="200" />
            </Array>
            <mxPoint x="630" y="180" as="targetPoint" />
          </mxGeometry>
        </mxCell>
        <mxCell id="6j0EwPkTre_6MSGywetc-9" value="&lt;font style=&quot;font-size: 8px;&quot;&gt;Realiza&amp;nbsp;&lt;/font&gt;&lt;div style=&quot;font-size: 8px;&quot;&gt;&lt;font style=&quot;font-size: 8px;&quot;&gt;vuelos&lt;/font&gt;&lt;/div&gt;" style="edgeLabel;html=1;align=center;verticalAlign=middle;resizable=0;points=[];shadow=1;labelBackgroundColor=none;textShadow=1;fontStyle=1" parent="6j0EwPkTre_6MSGywetc-8" vertex="1" connectable="0">
          <mxGeometry x="-0.0049" y="-2" relative="1" as="geometry">
            <mxPoint x="27" y="2" as="offset" />
          </mxGeometry>
        </mxCell>
        <mxCell id="6j0EwPkTre_6MSGywetc-10" value="Google&lt;div&gt;&amp;nbsp;maps&lt;/div&gt;" style="verticalAlign=middle;align=center;spacingTop=8;spacingLeft=2;spacingRight=12;shape=cube;size=10;direction=south;fontStyle=4;html=1;whiteSpace=wrap;shadow=1;fillColor=#fff2cc;strokeColor=#d6b656;" parent="1" vertex="1">
          <mxGeometry x="420" y="500" width="95" height="50" as="geometry" />
        </mxCell>
        <mxCell id="6j0EwPkTre_6MSGywetc-11" value="Ecosistema interno" style="text;strokeColor=none;fillColor=none;html=1;fontSize=24;fontStyle=1;verticalAlign=middle;align=left;shadow=1;" parent="1" vertex="1">
          <mxGeometry x="20" y="20" width="100" height="40" as="geometry" />
        </mxCell>
        <mxCell id="6j0EwPkTre_6MSGywetc-12" value="GeomÃ¡tica" style="text;align=center;fontStyle=1;verticalAlign=middle;spacingLeft=3;spacingRight=3;strokeColor=none;rotatable=0;points=[[0,0.5],[1,0.5]];portConstraint=eastwest;html=1;shadow=1;" parent="1" vertex="1">
          <mxGeometry x="590" y="54" width="80" height="26" as="geometry" />
        </mxCell>
        <mxCell id="6j0EwPkTre_6MSGywetc-13" value="DDSI" style="text;align=center;fontStyle=1;verticalAlign=middle;spacingLeft=3;spacingRight=3;strokeColor=none;rotatable=0;points=[[0,0.5],[1,0.5]];portConstraint=eastwest;html=1;shadow=1;" parent="1" vertex="1">
          <mxGeometry x="270" y="58" width="80" height="26" as="geometry" />
        </mxCell>
        <mxCell id="6j0EwPkTre_6MSGywetc-14" value="Areas verdes" style="text;align=center;fontStyle=1;verticalAlign=middle;spacingLeft=3;spacingRight=3;strokeColor=none;rotatable=0;points=[[0,0.5],[1,0.5]];portConstraint=eastwest;html=1;shadow=1;" parent="1" vertex="1">
          <mxGeometry x="720" y="54" width="80" height="26" as="geometry" />
        </mxCell>
        <mxCell id="6j0EwPkTre_6MSGywetc-15" value="Ecosistema externo" style="text;strokeColor=none;fillColor=none;html=1;fontSize=24;fontStyle=1;verticalAlign=middle;align=left;shadow=1;sketch=1;curveFitting=1;jiggle=2;rounded=0;" parent="1" vertex="1">
          <mxGeometry x="20" y="490" width="100" height="40" as="geometry" />
        </mxCell>
        <mxCell id="6j0EwPkTre_6MSGywetc-16" value="Sistemas de la IM" style="verticalAlign=top;align=left;spacingTop=8;spacingLeft=2;spacingRight=12;shape=cube;size=10;direction=south;fontStyle=4;html=1;whiteSpace=wrap;shadow=1;fillColor=#F5F5F5;fontColor=#333333;strokeColor=#666666;" parent="1" vertex="1">
          <mxGeometry x="20" y="84" width="530" height="376" as="geometry" />
        </mxCell>
        <mxCell id="6j0EwPkTre_6MSGywetc-17" value="Plataforma de monitoreo" style="verticalAlign=top;align=left;spacingTop=8;spacingLeft=2;spacingRight=12;shape=cube;size=10;direction=south;fontStyle=4;html=1;whiteSpace=wrap;shadow=1;fillColor=#E8E8E8;strokeColor=#6c8ebf;movable=1;resizable=1;rotatable=1;deletable=1;editable=1;locked=0;connectable=1;" parent="1" vertex="1">
          <mxGeometry x="30" y="124" width="500" height="326" as="geometry" />
        </mxCell>
        <mxCell id="6j0EwPkTre_6MSGywetc-18" style="rounded=0;orthogonalLoop=1;jettySize=auto;html=1;shadow=1;movable=0;resizable=0;rotatable=0;deletable=0;editable=0;locked=1;connectable=0;" parent="1" source="6j0EwPkTre_6MSGywetc-20" target="6j0EwPkTre_6MSGywetc-21" edge="1">
          <mxGeometry relative="1" as="geometry" />
        </mxCell>
        <mxCell id="6j0EwPkTre_6MSGywetc-20" value="Mini-apps" style="verticalAlign=middle;align=center;spacingTop=8;spacingLeft=2;spacingRight=12;shape=cube;size=10;direction=south;fontStyle=4;html=1;whiteSpace=wrap;shadow=1;fillColor=#dae8fc;strokeColor=#6c8ebf;movable=0;resizable=0;rotatable=0;deletable=0;editable=0;locked=1;connectable=0;" parent="1" vertex="1">
          <mxGeometry x="422.5" y="140" width="90" height="50" as="geometry" />
        </mxCell>
        <mxCell id="6j0EwPkTre_6MSGywetc-21" value="Repositorio de objetos" style="verticalAlign=middle;align=center;spacingTop=8;spacingLeft=2;spacingRight=12;shape=cube;size=10;direction=south;fontStyle=4;html=1;whiteSpace=wrap;shadow=1;fillColor=#dae8fc;strokeColor=#6c8ebf;movable=0;resizable=0;rotatable=0;deletable=0;editable=0;locked=1;connectable=0;" parent="1" vertex="1">
          <mxGeometry x="170" y="140" width="95" height="50" as="geometry" />
        </mxCell>
        <mxCell id="Msu8M1SkJzMI2zIytD5y-18" style="rounded=0;orthogonalLoop=1;jettySize=auto;html=1;startArrow=classic;startFill=1;movable=0;resizable=0;rotatable=0;deletable=0;editable=0;locked=1;connectable=0;" parent="1" source="6j0EwPkTre_6MSGywetc-26" target="6j0EwPkTre_6MSGywetc-27" edge="1">
          <mxGeometry relative="1" as="geometry" />
        </mxCell>
        <mxCell id="Msu8M1SkJzMI2zIytD5y-26" style="rounded=0;orthogonalLoop=1;jettySize=auto;html=1;movable=0;resizable=0;rotatable=0;deletable=0;editable=0;locked=1;connectable=0;" parent="1" source="6j0EwPkTre_6MSGywetc-26" target="6j0EwPkTre_6MSGywetc-21" edge="1">
          <mxGeometry relative="1" as="geometry" />
        </mxCell>
        <mxCell id="Msu8M1SkJzMI2zIytD5y-27" value="&lt;font style=&quot;font-size: 8px;&quot;&gt;Obtiene&lt;/font&gt;" style="edgeLabel;html=1;align=center;verticalAlign=middle;resizable=0;points=[];labelBackgroundColor=none;textShadow=1;fontStyle=1" parent="Msu8M1SkJzMI2zIytD5y-26" vertex="1" connectable="0">
          <mxGeometry x="-0.3322" y="-2" relative="1" as="geometry">
            <mxPoint x="21" y="-1" as="offset" />
          </mxGeometry>
        </mxCell>
        <mxCell id="6j0EwPkTre_6MSGywetc-26" value="IA" style="verticalAlign=middle;align=center;spacingTop=8;spacingLeft=2;spacingRight=12;shape=cube;size=10;direction=south;fontStyle=4;html=1;whiteSpace=wrap;shadow=1;fillColor=#e1d5e7;strokeColor=#9673a6;movable=0;resizable=0;rotatable=0;deletable=0;editable=0;locked=1;connectable=0;" parent="1" vertex="1">
          <mxGeometry x="300" y="210" width="95" height="50" as="geometry" />
        </mxCell>
        <mxCell id="6j0EwPkTre_6MSGywetc-27" value="Gestor de datos" style="verticalAlign=middle;align=center;spacingTop=8;spacingLeft=2;spacingRight=12;shape=cube;size=10;direction=south;fontStyle=4;html=1;whiteSpace=wrap;shadow=1;fillColor=#dae8fc;strokeColor=#6c8ebf;movable=0;resizable=0;rotatable=0;deletable=0;editable=0;locked=1;connectable=0;" parent="1" vertex="1">
          <mxGeometry x="40" y="385" width="95" height="50" as="geometry" />
        </mxCell>
        <mxCell id="Msu8M1SkJzMI2zIytD5y-37" style="edgeStyle=orthogonalEdgeStyle;rounded=0;orthogonalLoop=1;jettySize=auto;html=1;movable=0;resizable=0;rotatable=0;deletable=0;editable=0;locked=1;connectable=0;" parent="1" source="6j0EwPkTre_6MSGywetc-28" target="Msu8M1SkJzMI2zIytD5y-1" edge="1">
          <mxGeometry relative="1" as="geometry" />
        </mxCell>
        <mxCell id="6j0EwPkTre_6MSGywetc-28" value="AplicaciÃ³n&lt;div&gt;web&lt;/div&gt;" style="verticalAlign=middle;align=center;spacingTop=8;spacingLeft=2;spacingRight=12;shape=cube;size=10;direction=south;fontStyle=4;html=1;whiteSpace=wrap;shadow=1;fillColor=#dae8fc;strokeColor=#6c8ebf;movable=0;resizable=0;rotatable=0;deletable=0;editable=0;locked=1;connectable=0;" parent="1" vertex="1">
          <mxGeometry x="420" y="385" width="95" height="50" as="geometry" />
        </mxCell>
        <mxCell id="6j0EwPkTre_6MSGywetc-29" style="rounded=0;orthogonalLoop=1;jettySize=auto;html=1;entryX=0.99;entryY=0.481;entryDx=0;entryDy=0;entryPerimeter=0;shadow=1;strokeColor=default;endArrow=classic;endFill=1;flowAnimation=0;startArrow=classic;startFill=1;movable=0;resizable=0;rotatable=0;deletable=0;editable=0;locked=1;connectable=0;" parent="1" source="6j0EwPkTre_6MSGywetc-28" target="Msu8M1SkJzMI2zIytD5y-5" edge="1">
          <mxGeometry relative="1" as="geometry" />
        </mxCell>
        <mxCell id="6j0EwPkTre_6MSGywetc-32" style="edgeStyle=none;rounded=0;orthogonalLoop=1;jettySize=auto;html=1;shadow=1;" parent="1" source="6j0EwPkTre_6MSGywetc-5" target="6j0EwPkTre_6MSGywetc-28" edge="1">
          <mxGeometry relative="1" as="geometry" />
        </mxCell>
        <mxCell id="6j0EwPkTre_6MSGywetc-33" value="&lt;font style=&quot;font-size: 8px;&quot;&gt;Consulta&lt;/font&gt;&lt;div style=&quot;font-size: 8px;&quot;&gt;&lt;font style=&quot;font-size: 8px;&quot;&gt;resultados&amp;nbsp;&lt;/font&gt;&lt;/div&gt;&lt;div style=&quot;font-size: 8px;&quot;&gt;&lt;font style=&quot;font-size: 8px;&quot;&gt;del vuelo&lt;/font&gt;&lt;/div&gt;" style="edgeLabel;html=1;align=center;verticalAlign=middle;resizable=0;points=[];shadow=1;labelBorderColor=none;textShadow=1;labelBackgroundColor=none;fontStyle=1" parent="6j0EwPkTre_6MSGywetc-32" vertex="1" connectable="0">
          <mxGeometry x="-0.2762" y="3" relative="1" as="geometry">
            <mxPoint x="-17" y="22" as="offset" />
          </mxGeometry>
        </mxCell>
        <mxCell id="6j0EwPkTre_6MSGywetc-34" style="edgeStyle=none;rounded=0;orthogonalLoop=1;jettySize=auto;html=1;startArrow=classic;startFill=1;shadow=1;" parent="1" source="6j0EwPkTre_6MSGywetc-28" target="6j0EwPkTre_6MSGywetc-10" edge="1">
          <mxGeometry relative="1" as="geometry" />
        </mxCell>
        <mxCell id="6j0EwPkTre_6MSGywetc-36" value="" style="endArrow=none;dashed=1;html=1;dashPattern=1 3;strokeWidth=2;rounded=0;shadow=1;" parent="1" edge="1">
          <mxGeometry width="50" height="50" relative="1" as="geometry">
            <mxPoint x="800" y="480" as="sourcePoint" />
            <mxPoint x="800" y="80" as="targetPoint" />
          </mxGeometry>
        </mxCell>
        <mxCell id="6j0EwPkTre_6MSGywetc-37" style="edgeStyle=orthogonalEdgeStyle;rounded=0;orthogonalLoop=1;jettySize=auto;html=1;shadow=1;startArrow=classic;startFill=1;endArrow=none;endFill=0;" parent="1" source="6j0EwPkTre_6MSGywetc-20" target="6j0EwPkTre_6MSGywetc-40" edge="1">
          <mxGeometry relative="1" as="geometry">
            <Array as="points">
              <mxPoint x="600" y="185" />
            </Array>
          </mxGeometry>
        </mxCell>
        <mxCell id="Msu8M1SkJzMI2zIytD5y-44" value="&lt;font style=&quot;font-size: 8px;&quot;&gt;Scrapea&lt;/font&gt;" style="edgeLabel;html=1;align=center;verticalAlign=middle;resizable=0;points=[];labelBackgroundColor=none;textShadow=1;fontStyle=1" parent="6j0EwPkTre_6MSGywetc-37" vertex="1" connectable="0">
          <mxGeometry x="0.2941" relative="1" as="geometry">
            <mxPoint x="-2" y="5" as="offset" />
          </mxGeometry>
        </mxCell>
        <mxCell id="6j0EwPkTre_6MSGywetc-39" value="SIG" style="verticalAlign=top;align=left;spacingTop=8;spacingLeft=2;spacingRight=12;shape=cube;size=10;direction=south;fontStyle=4;html=1;whiteSpace=wrap;shadow=1;fillColor=#f9f7ed;strokeColor=#36393d;" parent="1" vertex="1">
          <mxGeometry x="570" y="80" width="120" height="96" as="geometry" />
        </mxCell>
        <mxCell id="6j0EwPkTre_6MSGywetc-40" value="MonteviMap" style="verticalAlign=middle;align=center;spacingTop=8;spacingLeft=2;spacingRight=12;shape=cube;size=10;direction=south;fontStyle=4;html=1;whiteSpace=wrap;shadow=1;fillColor=#d5e8d4;strokeColor=#82b366;" parent="1" vertex="1">
          <mxGeometry x="580" y="115" width="95" height="50" as="geometry" />
        </mxCell>
        <mxCell id="Msu8M1SkJzMI2zIytD5y-1" value="Seguridad" style="verticalAlign=middle;align=center;spacingTop=8;spacingLeft=2;spacingRight=12;shape=cube;size=10;direction=south;fontStyle=4;html=1;whiteSpace=wrap;shadow=1;fillColor=#f8cecc;strokeColor=#b85450;movable=0;resizable=0;rotatable=0;deletable=0;editable=0;locked=1;connectable=0;" parent="1" vertex="1">
          <mxGeometry x="300" y="385" width="95" height="50" as="geometry" />
        </mxCell>
        <mxCell id="Msu8M1SkJzMI2zIytD5y-14" style="edgeStyle=orthogonalEdgeStyle;rounded=0;orthogonalLoop=1;jettySize=auto;html=1;movable=0;resizable=0;rotatable=0;deletable=0;editable=0;locked=1;connectable=0;" parent="1" source="Msu8M1SkJzMI2zIytD5y-2" target="6j0EwPkTre_6MSGywetc-27" edge="1">
          <mxGeometry relative="1" as="geometry" />
        </mxCell>
        <mxCell id="Msu8M1SkJzMI2zIytD5y-16" style="rounded=0;orthogonalLoop=1;jettySize=auto;html=1;movable=1;resizable=1;rotatable=1;deletable=1;editable=1;locked=0;connectable=1;" parent="1" edge="1">
          <mxGeometry relative="1" as="geometry">
            <mxPoint x="135" y="239.86" as="sourcePoint" />
            <mxPoint x="170" y="190" as="targetPoint" />
          </mxGeometry>
        </mxCell>
        <mxCell id="Msu8M1SkJzMI2zIytD5y-19" value="Respalda" style="edgeLabel;html=1;align=center;verticalAlign=middle;resizable=1;points=[];fontSize=8;labelBackgroundColor=none;labelBorderColor=none;textShadow=1;rotation=0;fontStyle=1;movable=1;rotatable=1;deletable=1;editable=1;locked=0;connectable=1;" parent="Msu8M1SkJzMI2zIytD5y-16" vertex="1" connectable="0">
          <mxGeometry x="0.3198" relative="1" as="geometry">
            <mxPoint x="2" y="33" as="offset" />
          </mxGeometry>
        </mxCell>
        <mxCell id="Msu8M1SkJzMI2zIytD5y-2" value="Respaldo" style="verticalAlign=middle;align=center;spacingTop=8;spacingLeft=2;spacingRight=12;shape=cube;size=10;direction=south;fontStyle=4;html=1;whiteSpace=wrap;shadow=1;fillColor=#f8cecc;strokeColor=#b85450;movable=1;resizable=1;rotatable=1;deletable=1;editable=1;locked=0;connectable=1;" parent="1" vertex="1">
          <mxGeometry x="40" y="210" width="95" height="50" as="geometry" />
        </mxCell>
        <mxCell id="Msu8M1SkJzMI2zIytD5y-7" style="rounded=0;orthogonalLoop=1;jettySize=auto;html=1;movable=0;resizable=0;rotatable=0;deletable=0;editable=0;locked=1;connectable=0;" parent="1" source="Msu8M1SkJzMI2zIytD5y-3" target="6j0EwPkTre_6MSGywetc-21" edge="1">
          <mxGeometry relative="1" as="geometry" />
        </mxCell>
        <mxCell id="Msu8M1SkJzMI2zIytD5y-41" value="&lt;font style=&quot;font-size: 8px;&quot;&gt;Obtiene&lt;/font&gt;" style="edgeLabel;html=1;align=center;verticalAlign=middle;resizable=0;points=[];labelBackgroundColor=none;textShadow=1;fontStyle=1" parent="Msu8M1SkJzMI2zIytD5y-7" vertex="1" connectable="0">
          <mxGeometry x="-0.7873" y="1" relative="1" as="geometry">
            <mxPoint x="23" y="1" as="offset" />
          </mxGeometry>
        </mxCell>
        <mxCell id="Msu8M1SkJzMI2zIytD5y-8" style="rounded=0;orthogonalLoop=1;jettySize=auto;html=1;startArrow=classic;startFill=1;movable=0;resizable=0;rotatable=0;deletable=0;editable=0;locked=1;connectable=0;" parent="1" source="Msu8M1SkJzMI2zIytD5y-3" target="6j0EwPkTre_6MSGywetc-27" edge="1">
          <mxGeometry relative="1" as="geometry" />
        </mxCell>
        <mxCell id="Msu8M1SkJzMI2zIytD5y-39" style="edgeStyle=orthogonalEdgeStyle;rounded=0;orthogonalLoop=1;jettySize=auto;html=1;movable=0;resizable=0;rotatable=0;deletable=0;editable=0;locked=1;connectable=0;" parent="1" source="Msu8M1SkJzMI2zIytD5y-3" target="Msu8M1SkJzMI2zIytD5y-1" edge="1">
          <mxGeometry relative="1" as="geometry" />
        </mxCell>
        <mxCell id="Msu8M1SkJzMI2zIytD5y-3" value="Etiquetado de datos" style="verticalAlign=middle;align=center;spacingTop=8;spacingLeft=2;spacingRight=12;shape=cube;size=10;direction=south;fontStyle=4;html=1;whiteSpace=wrap;shadow=1;fillColor=#dae8fc;strokeColor=#6c8ebf;movable=0;resizable=0;rotatable=0;deletable=0;editable=0;locked=1;connectable=0;" parent="1" vertex="1">
          <mxGeometry x="300" y="300" width="95" height="50" as="geometry" />
        </mxCell>
        <mxCell id="Msu8M1SkJzMI2zIytD5y-9" style="rounded=0;orthogonalLoop=1;jettySize=auto;html=1;movable=1;resizable=1;rotatable=1;deletable=1;editable=1;locked=0;connectable=1;" parent="1" source="Msu8M1SkJzMI2zIytD5y-4" target="6j0EwPkTre_6MSGywetc-21" edge="1">
          <mxGeometry relative="1" as="geometry" />
        </mxCell>
        <mxCell id="Msu8M1SkJzMI2zIytD5y-25" value="&lt;font style=&quot;font-size: 8px;&quot;&gt;Analiza&lt;/font&gt;" style="edgeLabel;html=1;align=center;verticalAlign=middle;resizable=0;points=[];labelBackgroundColor=none;textShadow=1;fontStyle=1" parent="Msu8M1SkJzMI2zIytD5y-9" vertex="1" connectable="0">
          <mxGeometry x="0.6627" relative="1" as="geometry">
            <mxPoint x="23" y="147" as="offset" />
          </mxGeometry>
        </mxCell>
        <mxCell id="Msu8M1SkJzMI2zIytD5y-10" style="rounded=0;orthogonalLoop=1;jettySize=auto;html=1;movable=0;resizable=0;rotatable=0;deletable=0;editable=0;locked=1;connectable=0;" parent="1" source="Msu8M1SkJzMI2zIytD5y-4" target="6j0EwPkTre_6MSGywetc-27" edge="1">
          <mxGeometry relative="1" as="geometry" />
        </mxCell>
        <mxCell id="Msu8M1SkJzMI2zIytD5y-4" value="Calidad de datos" style="verticalAlign=middle;align=center;spacingTop=8;spacingLeft=2;spacingRight=12;shape=cube;size=10;direction=south;fontStyle=4;html=1;whiteSpace=wrap;shadow=1;fillColor=#dae8fc;strokeColor=#6c8ebf;movable=0;resizable=0;rotatable=0;deletable=0;editable=0;locked=1;connectable=0;" parent="1" vertex="1">
          <mxGeometry x="170" y="385" width="95" height="50" as="geometry" />
        </mxCell>
        <mxCell id="Msu8M1SkJzMI2zIytD5y-6" style="rounded=0;orthogonalLoop=1;jettySize=auto;html=1;endArrow=classic;endFill=1;startArrow=classic;startFill=1;movable=0;resizable=0;rotatable=0;deletable=0;editable=0;locked=1;connectable=0;" parent="1" source="Msu8M1SkJzMI2zIytD5y-5" target="6j0EwPkTre_6MSGywetc-20" edge="1">
          <mxGeometry relative="1" as="geometry" />
        </mxCell>
        <mxCell id="Msu8M1SkJzMI2zIytD5y-5" value="InformaciÃ³n&lt;div&gt;Georreferencia&lt;/div&gt;" style="verticalAlign=middle;align=center;spacingTop=8;spacingLeft=2;spacingRight=12;shape=cube;size=10;direction=south;fontStyle=4;html=1;whiteSpace=wrap;shadow=1;fillColor=#dae8fc;strokeColor=#6c8ebf;movable=0;resizable=0;rotatable=0;deletable=0;editable=0;locked=1;connectable=0;" parent="1" vertex="1">
          <mxGeometry x="420" y="300" width="95" height="50" as="geometry" />
        </mxCell>
        <mxCell id="Msu8M1SkJzMI2zIytD5y-20" value="Respalda" style="edgeLabel;html=1;align=center;verticalAlign=middle;resizable=0;points=[];fontSize=8;labelBackgroundColor=none;labelBorderColor=none;textShadow=1;rotation=0;fontStyle=1" parent="1" vertex="1" connectable="0">
          <mxGeometry x="109.99555555555554" y="275" as="geometry" />
        </mxCell>
        <mxCell id="Msu8M1SkJzMI2zIytD5y-28" value="&lt;font style=&quot;font-size: 8px;&quot;&gt;InteractÃºa&lt;/font&gt;" style="edgeLabel;html=1;align=center;verticalAlign=middle;resizable=0;points=[];textShadow=1;labelBackgroundColor=none;fontStyle=1" parent="1" vertex="1" connectable="0">
          <mxGeometry x="119.9972936305764" y="370.00034989391435" as="geometry" />
        </mxCell>
        <mxCell id="Msu8M1SkJzMI2zIytD5y-29" value="&lt;font style=&quot;font-size: 8px;&quot;&gt;InteractÃºa&lt;/font&gt;" style="edgeLabel;html=1;align=center;verticalAlign=middle;resizable=0;points=[];textShadow=1;labelBackgroundColor=none;fontStyle=1" parent="1" vertex="1" connectable="0">
          <mxGeometry x="329.9972936305764" y="265.00034989391435" as="geometry" />
        </mxCell>
        <mxCell id="Msu8M1SkJzMI2zIytD5y-30" value="&lt;font style=&quot;font-size: 8px;&quot;&gt;InteractÃºa&lt;/font&gt;" style="edgeLabel;html=1;align=center;verticalAlign=middle;resizable=0;points=[];textShadow=1;labelBackgroundColor=none;fontStyle=1" parent="1" vertex="1" connectable="0">
          <mxGeometry x="439.9972936305764" y="360.00034989391435" as="geometry" />
        </mxCell>
        <mxCell id="Msu8M1SkJzMI2zIytD5y-31" value="&lt;font style=&quot;font-size: 8px;&quot;&gt;InteractÃºa&lt;/font&gt;" style="edgeLabel;html=1;align=center;verticalAlign=middle;resizable=0;points=[];textShadow=1;labelBackgroundColor=none;fontStyle=1" parent="1" vertex="1" connectable="0">
          <mxGeometry x="461.4972936305764" y="370.00034989391435" as="geometry">
            <mxPoint x="37" y="7" as="offset" />
          </mxGeometry>
        </mxCell>
        <mxCell id="Msu8M1SkJzMI2zIytD5y-32" value="&lt;font style=&quot;font-size: 8px;&quot;&gt;InteractÃºa&lt;/font&gt;" style="edgeLabel;html=1;align=center;verticalAlign=middle;resizable=0;points=[];textShadow=1;labelBackgroundColor=none;fontStyle=1" parent="1" vertex="1" connectable="0">
          <mxGeometry x="439.9972936305764" y="200.00034989391435" as="geometry" />
        </mxCell>
        <mxCell id="Msu8M1SkJzMI2zIytD5y-33" value="&lt;font style=&quot;font-size: 8px;&quot;&gt;InteractÃºa&lt;/font&gt;" style="edgeLabel;html=1;align=center;verticalAlign=middle;resizable=0;points=[];textShadow=1;labelBackgroundColor=none;fontStyle=1" parent="1" vertex="1" connectable="0">
          <mxGeometry x="489.9972936305764" y="280.00034989391435" as="geometry" />
        </mxCell>
        <mxCell id="Msu8M1SkJzMI2zIytD5y-34" value="&lt;font style=&quot;font-size: 8px;&quot;&gt;InteractÃºa&lt;/font&gt;" style="edgeLabel;html=1;align=center;verticalAlign=middle;resizable=0;points=[];textShadow=1;labelBackgroundColor=none;fontStyle=1" parent="1" vertex="1" connectable="0">
          <mxGeometry x="439.9972936305764" y="440.00034989391435" as="geometry" />
        </mxCell>
        <mxCell id="Msu8M1SkJzMI2zIytD5y-35" value="&lt;font style=&quot;font-size: 8px;&quot;&gt;InteractÃºa&lt;/font&gt;" style="edgeLabel;html=1;align=center;verticalAlign=middle;resizable=0;points=[];textShadow=1;labelBackgroundColor=none;fontStyle=1" parent="1" vertex="1" connectable="0">
          <mxGeometry x="499.9972936305764" y="480.00034989391435" as="geometry">
            <mxPoint x="-8" y="-11" as="offset" />
          </mxGeometry>
        </mxCell>
        <mxCell id="Msu8M1SkJzMI2zIytD5y-38" value="&lt;font style=&quot;font-size: 8px;&quot;&gt;Autentica&lt;/font&gt;" style="edgeLabel;html=1;align=center;verticalAlign=middle;resizable=0;points=[];labelBackgroundColor=none;textShadow=1;fontStyle=1" parent="1" vertex="1" connectable="0">
          <mxGeometry x="370.0030842057544" y="350.00187631734946" as="geometry">
            <mxPoint x="-2" y="15" as="offset" />
          </mxGeometry>
        </mxCell>
        <mxCell id="Msu8M1SkJzMI2zIytD5y-40" value="&lt;font style=&quot;font-size: 8px;&quot;&gt;Autentica&lt;/font&gt;" style="edgeLabel;html=1;align=center;verticalAlign=middle;resizable=0;points=[];labelBackgroundColor=none;textShadow=1;rotation=-90;fontStyle=1" parent="1" vertex="1" connectable="0">
          <mxGeometry x="395.0030842057544" y="385.00187631734946" as="geometry">
            <mxPoint x="-2" y="15" as="offset" />
          </mxGeometry>
        </mxCell>
        <mxCell id="Msu8M1SkJzMI2zIytD5y-42" value="&lt;font style=&quot;font-size: 8px;&quot;&gt;InteractÃºa&lt;/font&gt;" style="edgeLabel;html=1;align=center;verticalAlign=middle;resizable=0;points=[];textShadow=1;labelBackgroundColor=none;rotation=-20;fontStyle=1" parent="1" vertex="1" connectable="0">
          <mxGeometry x="159.9972936305764" y="380.00034989391435" as="geometry" />
        </mxCell>
        <mxCell id="Msu8M1SkJzMI2zIytD5y-43" value="&lt;font style=&quot;font-size: 8px;&quot;&gt;InteractÃºa&lt;/font&gt;" style="edgeLabel;html=1;align=center;verticalAlign=middle;resizable=0;points=[];textShadow=1;labelBackgroundColor=none;rotation=0;fontStyle=1" parent="1" vertex="1" connectable="0">
          <mxGeometry x="269.9972936305764" y="335.00034989391435" as="geometry" />
        </mxCell>
      </root>
    </mxGraphModel>
  </diagram>
  <diagram id="M2BR1tdmuBOo-fvJSA_Q" name="Plataforma de monitoreo - Herramientas">
    <mxGraphModel dx="816" dy="500" grid="1" gridSize="10" guides="1" tooltips="1" connect="1" arrows="1" fold="1" page="1" pageScale="1" pageWidth="827" pageHeight="1169" math="0" shadow="0">
      <root>
        <mxCell id="0" />
        <mxCell id="1" parent="0" />
        <mxCell id="0CxaGTE9pm0f68DHfOU4-17" value="OpenShift (producciÃ³n)&lt;div&gt;&lt;br&gt;&lt;/div&gt;&lt;div&gt;Docker + Vagrant&lt;/div&gt;&lt;div&gt;(desarrollo)&lt;/div&gt;" style="verticalAlign=top;align=left;spacingTop=8;spacingLeft=2;spacingRight=12;shape=cube;size=10;direction=south;fontStyle=4;html=1;whiteSpace=wrap;shadow=1;fillColor=#E8E8E8;strokeColor=#6c8ebf;movable=1;resizable=1;rotatable=1;deletable=1;editable=1;locked=0;connectable=1;" parent="1" vertex="1">
          <mxGeometry x="30" y="30" width="500" height="326" as="geometry" />
        </mxCell>
        <mxCell id="0CxaGTE9pm0f68DHfOU4-18" style="rounded=0;orthogonalLoop=1;jettySize=auto;html=1;shadow=1;movable=1;resizable=1;rotatable=1;deletable=1;editable=1;locked=0;connectable=1;" parent="1" source="0CxaGTE9pm0f68DHfOU4-19" target="0CxaGTE9pm0f68DHfOU4-20" edge="1">
          <mxGeometry relative="1" as="geometry" />
        </mxCell>
        <mxCell id="0CxaGTE9pm0f68DHfOU4-70" value="Guarda" style="edgeLabel;html=1;align=center;verticalAlign=middle;resizable=0;points=[];fontSize=8;labelBackgroundColor=none;textShadow=1;fontStyle=1" parent="0CxaGTE9pm0f68DHfOU4-18" vertex="1" connectable="0">
          <mxGeometry x="-0.4248" y="2" relative="1" as="geometry">
            <mxPoint y="-12" as="offset" />
          </mxGeometry>
        </mxCell>
        <mxCell id="0CxaGTE9pm0f68DHfOU4-19" value="Pyhton&lt;div&gt;scripts&lt;/div&gt;" style="verticalAlign=middle;align=center;spacingTop=8;spacingLeft=2;spacingRight=12;shape=cube;size=10;direction=south;fontStyle=4;html=1;whiteSpace=wrap;shadow=1;fillColor=#dae8fc;strokeColor=#6c8ebf;movable=1;resizable=1;rotatable=1;deletable=1;editable=1;locked=0;connectable=1;" parent="1" vertex="1">
          <mxGeometry x="422.5" y="46" width="90" height="50" as="geometry" />
        </mxCell>
        <mxCell id="0CxaGTE9pm0f68DHfOU4-20" value="MinIO" style="verticalAlign=middle;align=center;spacingTop=8;spacingLeft=2;spacingRight=12;shape=cube;size=10;direction=south;fontStyle=4;html=1;whiteSpace=wrap;shadow=1;fillColor=#dae8fc;strokeColor=#6c8ebf;movable=1;resizable=1;rotatable=1;deletable=1;editable=1;locked=0;connectable=1;" parent="1" vertex="1">
          <mxGeometry x="170" y="46" width="95" height="50" as="geometry" />
        </mxCell>
        <mxCell id="0CxaGTE9pm0f68DHfOU4-21" style="rounded=0;orthogonalLoop=1;jettySize=auto;html=1;startArrow=classic;startFill=1;movable=1;resizable=1;rotatable=1;deletable=1;editable=1;locked=0;connectable=1;" parent="1" source="0CxaGTE9pm0f68DHfOU4-24" target="0CxaGTE9pm0f68DHfOU4-25" edge="1">
          <mxGeometry relative="1" as="geometry" />
        </mxCell>
        <mxCell id="0CxaGTE9pm0f68DHfOU4-22" style="rounded=0;orthogonalLoop=1;jettySize=auto;html=1;movable=1;resizable=1;rotatable=1;deletable=1;editable=1;locked=0;connectable=1;" parent="1" source="0CxaGTE9pm0f68DHfOU4-24" target="0CxaGTE9pm0f68DHfOU4-20" edge="1">
          <mxGeometry relative="1" as="geometry" />
        </mxCell>
        <mxCell id="0CxaGTE9pm0f68DHfOU4-23" value="&lt;font style=&quot;font-size: 8px;&quot;&gt;Obtiene&lt;/font&gt;" style="edgeLabel;html=1;align=center;verticalAlign=middle;resizable=1;points=[];labelBackgroundColor=none;textShadow=1;fontStyle=1;movable=1;rotatable=1;deletable=1;editable=1;locked=0;connectable=1;" parent="0CxaGTE9pm0f68DHfOU4-22" vertex="1" connectable="0">
          <mxGeometry x="-0.3322" y="-2" relative="1" as="geometry">
            <mxPoint x="21" y="-1" as="offset" />
          </mxGeometry>
        </mxCell>
        <mxCell id="0CxaGTE9pm0f68DHfOU4-24" value="Entrenamiento&lt;div&gt;Modelos IA&lt;/div&gt;" style="verticalAlign=middle;align=center;spacingTop=8;spacingLeft=2;spacingRight=12;shape=cube;size=10;direction=south;fontStyle=4;html=1;whiteSpace=wrap;shadow=1;fillColor=#e1d5e7;strokeColor=#9673a6;movable=1;resizable=1;rotatable=1;deletable=1;editable=1;locked=0;connectable=1;" parent="1" vertex="1">
          <mxGeometry x="300" y="116" width="95" height="50" as="geometry" />
        </mxCell>
        <mxCell id="0CxaGTE9pm0f68DHfOU4-25" value="MongoDB" style="verticalAlign=middle;align=center;spacingTop=8;spacingLeft=2;spacingRight=12;shape=cube;size=10;direction=south;fontStyle=4;html=1;whiteSpace=wrap;shadow=1;fillColor=#dae8fc;strokeColor=#6c8ebf;movable=1;resizable=1;rotatable=1;deletable=1;editable=1;locked=0;connectable=1;" parent="1" vertex="1">
          <mxGeometry x="40" y="291" width="95" height="50" as="geometry" />
        </mxCell>
        <mxCell id="0CxaGTE9pm0f68DHfOU4-26" style="edgeStyle=orthogonalEdgeStyle;rounded=0;orthogonalLoop=1;jettySize=auto;html=1;movable=1;resizable=1;rotatable=1;deletable=1;editable=1;locked=0;connectable=1;" parent="1" source="0CxaGTE9pm0f68DHfOU4-27" target="0CxaGTE9pm0f68DHfOU4-37" edge="1">
          <mxGeometry relative="1" as="geometry" />
        </mxCell>
        <mxCell id="0CxaGTE9pm0f68DHfOU4-27" value="Angular&lt;br&gt;Leafletjs" style="verticalAlign=middle;align=center;spacingTop=8;spacingLeft=2;spacingRight=12;shape=cube;size=10;direction=south;fontStyle=4;html=1;whiteSpace=wrap;shadow=1;fillColor=#dae8fc;strokeColor=#6c8ebf;movable=1;resizable=1;rotatable=1;deletable=1;editable=1;locked=0;connectable=1;" parent="1" vertex="1">
          <mxGeometry x="420" y="291" width="95" height="50" as="geometry" />
        </mxCell>
        <mxCell id="0CxaGTE9pm0f68DHfOU4-28" style="rounded=0;orthogonalLoop=1;jettySize=auto;html=1;entryX=0.99;entryY=0.481;entryDx=0;entryDy=0;entryPerimeter=0;shadow=1;strokeColor=default;endArrow=classic;endFill=1;flowAnimation=0;startArrow=classic;startFill=1;movable=1;resizable=1;rotatable=1;deletable=1;editable=1;locked=0;connectable=1;" parent="1" source="0CxaGTE9pm0f68DHfOU4-27" target="0CxaGTE9pm0f68DHfOU4-52" edge="1">
          <mxGeometry relative="1" as="geometry" />
        </mxCell>
        <mxCell id="0CxaGTE9pm0f68DHfOU4-37" value="LLDAP&lt;div&gt;SSP&lt;/div&gt;" style="verticalAlign=middle;align=center;spacingTop=8;spacingLeft=2;spacingRight=12;shape=cube;size=10;direction=south;fontStyle=4;html=1;whiteSpace=wrap;shadow=1;fillColor=#f8cecc;strokeColor=#b85450;movable=1;resizable=1;rotatable=1;deletable=1;editable=1;locked=0;connectable=1;" parent="1" vertex="1">
          <mxGeometry x="300" y="291" width="95" height="50" as="geometry" />
        </mxCell>
        <mxCell id="0CxaGTE9pm0f68DHfOU4-38" style="edgeStyle=orthogonalEdgeStyle;rounded=0;orthogonalLoop=1;jettySize=auto;html=1;movable=1;resizable=1;rotatable=1;deletable=1;editable=1;locked=0;connectable=1;" parent="1" source="0CxaGTE9pm0f68DHfOU4-41" target="0CxaGTE9pm0f68DHfOU4-25" edge="1">
          <mxGeometry relative="1" as="geometry" />
        </mxCell>
        <mxCell id="0CxaGTE9pm0f68DHfOU4-39" style="rounded=0;orthogonalLoop=1;jettySize=auto;html=1;entryX=1.082;entryY=1.007;entryDx=0;entryDy=0;entryPerimeter=0;movable=1;resizable=1;rotatable=1;deletable=1;editable=1;locked=0;connectable=1;" parent="1" target="0CxaGTE9pm0f68DHfOU4-20" edge="1">
          <mxGeometry relative="1" as="geometry">
            <mxPoint x="135" y="145.86" as="sourcePoint" />
            <mxPoint x="170" y="145.86" as="targetPoint" />
          </mxGeometry>
        </mxCell>
        <mxCell id="0CxaGTE9pm0f68DHfOU4-40" value="Respalda" style="edgeLabel;html=1;align=center;verticalAlign=middle;resizable=1;points=[];fontSize=8;labelBackgroundColor=none;labelBorderColor=none;textShadow=1;rotation=0;fontStyle=1;movable=1;rotatable=1;deletable=1;editable=1;locked=0;connectable=1;" parent="0CxaGTE9pm0f68DHfOU4-39" vertex="1" connectable="0">
          <mxGeometry x="0.3198" relative="1" as="geometry">
            <mxPoint x="2" y="34" as="offset" />
          </mxGeometry>
        </mxCell>
        <mxCell id="0CxaGTE9pm0f68DHfOU4-41" value="Scripts&lt;div&gt;respaldo&lt;/div&gt;" style="verticalAlign=middle;align=center;spacingTop=8;spacingLeft=2;spacingRight=12;shape=cube;size=10;direction=south;fontStyle=4;html=1;whiteSpace=wrap;shadow=1;fillColor=#f8cecc;strokeColor=#b85450;movable=1;resizable=1;rotatable=1;deletable=1;editable=1;locked=0;connectable=1;" parent="1" vertex="1">
          <mxGeometry x="40" y="121" width="95" height="50" as="geometry" />
        </mxCell>
        <mxCell id="0CxaGTE9pm0f68DHfOU4-42" style="rounded=0;orthogonalLoop=1;jettySize=auto;html=1;movable=1;resizable=1;rotatable=1;deletable=1;editable=1;locked=0;connectable=1;" parent="1" source="0CxaGTE9pm0f68DHfOU4-46" target="0CxaGTE9pm0f68DHfOU4-20" edge="1">
          <mxGeometry relative="1" as="geometry" />
        </mxCell>
        <mxCell id="0CxaGTE9pm0f68DHfOU4-43" value="&lt;font style=&quot;font-size: 8px;&quot;&gt;Obtiene&lt;/font&gt;" style="edgeLabel;html=1;align=center;verticalAlign=middle;resizable=1;points=[];labelBackgroundColor=none;textShadow=1;fontStyle=1;movable=1;rotatable=1;deletable=1;editable=1;locked=0;connectable=1;" parent="0CxaGTE9pm0f68DHfOU4-42" vertex="1" connectable="0">
          <mxGeometry x="-0.7873" y="1" relative="1" as="geometry">
            <mxPoint x="23" y="1" as="offset" />
          </mxGeometry>
        </mxCell>
        <mxCell id="0CxaGTE9pm0f68DHfOU4-44" style="rounded=0;orthogonalLoop=1;jettySize=auto;html=1;startArrow=classic;startFill=1;movable=1;resizable=1;rotatable=1;deletable=1;editable=1;locked=0;connectable=1;" parent="1" source="0CxaGTE9pm0f68DHfOU4-46" target="0CxaGTE9pm0f68DHfOU4-25" edge="1">
          <mxGeometry relative="1" as="geometry" />
        </mxCell>
        <mxCell id="0CxaGTE9pm0f68DHfOU4-45" style="edgeStyle=orthogonalEdgeStyle;rounded=0;orthogonalLoop=1;jettySize=auto;html=1;movable=1;resizable=1;rotatable=1;deletable=1;editable=1;locked=0;connectable=1;" parent="1" source="0CxaGTE9pm0f68DHfOU4-46" target="0CxaGTE9pm0f68DHfOU4-37" edge="1">
          <mxGeometry relative="1" as="geometry" />
        </mxCell>
        <mxCell id="0CxaGTE9pm0f68DHfOU4-46" value="CVAT" style="verticalAlign=middle;align=center;spacingTop=8;spacingLeft=2;spacingRight=12;shape=cube;size=10;direction=south;fontStyle=4;html=1;whiteSpace=wrap;shadow=1;fillColor=#dae8fc;strokeColor=#6c8ebf;movable=1;resizable=1;rotatable=1;deletable=1;editable=1;locked=0;connectable=1;" parent="1" vertex="1">
          <mxGeometry x="300" y="206" width="95" height="50" as="geometry" />
        </mxCell>
        <mxCell id="0CxaGTE9pm0f68DHfOU4-49" style="rounded=0;orthogonalLoop=1;jettySize=auto;html=1;movable=1;resizable=1;rotatable=1;deletable=1;editable=1;locked=0;connectable=1;" parent="1" source="0CxaGTE9pm0f68DHfOU4-50" target="0CxaGTE9pm0f68DHfOU4-25" edge="1">
          <mxGeometry relative="1" as="geometry" />
        </mxCell>
        <mxCell id="0CxaGTE9pm0f68DHfOU4-71" value="&lt;font style=&quot;font-size: 8px;&quot;&gt;Analiza&lt;/font&gt;" style="edgeLabel;html=1;align=center;verticalAlign=middle;resizable=0;points=[];labelBackgroundColor=none;textShadow=1;fontStyle=1" parent="0CxaGTE9pm0f68DHfOU4-49" vertex="1" connectable="0">
          <mxGeometry x="0.0198" y="1" relative="1" as="geometry">
            <mxPoint y="13" as="offset" />
          </mxGeometry>
        </mxCell>
        <mxCell id="0CxaGTE9pm0f68DHfOU4-50" value="FiftyOne" style="verticalAlign=middle;align=center;spacingTop=8;spacingLeft=2;spacingRight=12;shape=cube;size=10;direction=south;fontStyle=4;html=1;whiteSpace=wrap;shadow=1;fillColor=#dae8fc;strokeColor=#6c8ebf;movable=1;resizable=1;rotatable=1;deletable=1;editable=1;locked=0;connectable=1;" parent="1" vertex="1">
          <mxGeometry x="180" y="291" width="95" height="50" as="geometry" />
        </mxCell>
        <mxCell id="0CxaGTE9pm0f68DHfOU4-51" style="rounded=0;orthogonalLoop=1;jettySize=auto;html=1;endArrow=classic;endFill=1;startArrow=classic;startFill=1;movable=1;resizable=1;rotatable=1;deletable=1;editable=1;locked=0;connectable=1;" parent="1" source="0CxaGTE9pm0f68DHfOU4-52" target="0CxaGTE9pm0f68DHfOU4-19" edge="1">
          <mxGeometry relative="1" as="geometry" />
        </mxCell>
        <mxCell id="0CxaGTE9pm0f68DHfOU4-52" value="QGIS" style="verticalAlign=middle;align=center;spacingTop=8;spacingLeft=2;spacingRight=12;shape=cube;size=10;direction=south;fontStyle=4;html=1;whiteSpace=wrap;shadow=1;fillColor=#dae8fc;strokeColor=#6c8ebf;movable=1;resizable=1;rotatable=1;deletable=1;editable=1;locked=0;connectable=1;" parent="1" vertex="1">
          <mxGeometry x="420" y="206" width="95" height="50" as="geometry" />
        </mxCell>
        <mxCell id="0CxaGTE9pm0f68DHfOU4-53" value="Respalda" style="edgeLabel;html=1;align=center;verticalAlign=middle;resizable=1;points=[];fontSize=8;labelBackgroundColor=none;labelBorderColor=none;textShadow=1;rotation=0;fontStyle=1;movable=1;rotatable=1;deletable=1;editable=1;locked=0;connectable=1;" parent="1" vertex="1" connectable="0">
          <mxGeometry x="109.99555555555554" y="181" as="geometry" />
        </mxCell>
        <mxCell id="0CxaGTE9pm0f68DHfOU4-54" value="&lt;font style=&quot;font-size: 8px;&quot;&gt;InteractÃºa&lt;/font&gt;" style="edgeLabel;html=1;align=center;verticalAlign=middle;resizable=1;points=[];textShadow=1;labelBackgroundColor=none;fontStyle=1;movable=1;rotatable=1;deletable=1;editable=1;locked=0;connectable=1;" parent="1" vertex="1" connectable="0">
          <mxGeometry x="119.9972936305764" y="276.00034989391435" as="geometry" />
        </mxCell>
        <mxCell id="0CxaGTE9pm0f68DHfOU4-55" value="&lt;font style=&quot;font-size: 8px;&quot;&gt;InteractÃºa&lt;/font&gt;" style="edgeLabel;html=1;align=center;verticalAlign=middle;resizable=1;points=[];textShadow=1;labelBackgroundColor=none;fontStyle=1;movable=1;rotatable=1;deletable=1;editable=1;locked=0;connectable=1;" parent="1" vertex="1" connectable="0">
          <mxGeometry x="329.9972936305764" y="171.00034989391435" as="geometry" />
        </mxCell>
        <mxCell id="0CxaGTE9pm0f68DHfOU4-56" value="&lt;font style=&quot;font-size: 8px;&quot;&gt;InteractÃºa&lt;/font&gt;" style="edgeLabel;html=1;align=center;verticalAlign=middle;resizable=1;points=[];textShadow=1;labelBackgroundColor=none;fontStyle=1;movable=1;rotatable=1;deletable=1;editable=1;locked=0;connectable=1;" parent="1" vertex="1" connectable="0">
          <mxGeometry x="439.9972936305764" y="266.00034989391435" as="geometry" />
        </mxCell>
        <mxCell id="0CxaGTE9pm0f68DHfOU4-57" value="&lt;font style=&quot;font-size: 8px;&quot;&gt;InteractÃºa&lt;/font&gt;" style="edgeLabel;html=1;align=center;verticalAlign=middle;resizable=1;points=[];textShadow=1;labelBackgroundColor=none;fontStyle=1;movable=1;rotatable=1;deletable=1;editable=1;locked=0;connectable=1;" parent="1" vertex="1" connectable="0">
          <mxGeometry x="461.4972936305764" y="276.00034989391435" as="geometry">
            <mxPoint x="37" y="7" as="offset" />
          </mxGeometry>
        </mxCell>
        <mxCell id="0CxaGTE9pm0f68DHfOU4-58" value="&lt;font style=&quot;font-size: 8px;&quot;&gt;InteractÃºa&lt;/font&gt;" style="edgeLabel;html=1;align=center;verticalAlign=middle;resizable=1;points=[];textShadow=1;labelBackgroundColor=none;fontStyle=1;movable=1;rotatable=1;deletable=1;editable=1;locked=0;connectable=1;" parent="1" vertex="1" connectable="0">
          <mxGeometry x="439.9972936305764" y="106.00034989391435" as="geometry" />
        </mxCell>
        <mxCell id="0CxaGTE9pm0f68DHfOU4-59" value="&lt;font style=&quot;font-size: 8px;&quot;&gt;InteractÃºa&lt;/font&gt;" style="edgeLabel;html=1;align=center;verticalAlign=middle;resizable=1;points=[];textShadow=1;labelBackgroundColor=none;fontStyle=1;movable=1;rotatable=1;deletable=1;editable=1;locked=0;connectable=1;" parent="1" vertex="1" connectable="0">
          <mxGeometry x="489.9972936305764" y="181.00034989391435" as="geometry" />
        </mxCell>
        <mxCell id="0CxaGTE9pm0f68DHfOU4-62" value="&lt;font style=&quot;font-size: 8px;&quot;&gt;Autentica&lt;/font&gt;" style="edgeLabel;html=1;align=center;verticalAlign=middle;resizable=1;points=[];labelBackgroundColor=none;textShadow=1;fontStyle=1;movable=1;rotatable=1;deletable=1;editable=1;locked=0;connectable=1;" parent="1" vertex="1" connectable="0">
          <mxGeometry x="370.0030842057544" y="256.00187631734946" as="geometry">
            <mxPoint x="-2" y="15" as="offset" />
          </mxGeometry>
        </mxCell>
        <mxCell id="0CxaGTE9pm0f68DHfOU4-63" value="&lt;font style=&quot;font-size: 8px;&quot;&gt;Autentica&lt;/font&gt;" style="edgeLabel;html=1;align=center;verticalAlign=middle;resizable=1;points=[];labelBackgroundColor=none;textShadow=1;rotation=-90;fontStyle=1;movable=1;rotatable=1;deletable=1;editable=1;locked=0;connectable=1;" parent="1" vertex="1" connectable="0">
          <mxGeometry x="395.0030842057544" y="291.00187631734946" as="geometry">
            <mxPoint x="-2" y="15" as="offset" />
          </mxGeometry>
        </mxCell>
        <mxCell id="0CxaGTE9pm0f68DHfOU4-64" value="&lt;font style=&quot;font-size: 8px;&quot;&gt;InteractÃºa&lt;/font&gt;" style="edgeLabel;html=1;align=center;verticalAlign=middle;resizable=1;points=[];textShadow=1;labelBackgroundColor=none;rotation=-20;fontStyle=1;movable=1;rotatable=1;deletable=1;editable=1;locked=0;connectable=1;" parent="1" vertex="1" connectable="0">
          <mxGeometry x="159.9972936305764" y="286.00034989391435" as="geometry" />
        </mxCell>
        <mxCell id="0CxaGTE9pm0f68DHfOU4-65" value="&lt;font style=&quot;font-size: 8px;&quot;&gt;InteractÃºa&lt;/font&gt;" style="edgeLabel;html=1;align=center;verticalAlign=middle;resizable=1;points=[];textShadow=1;labelBackgroundColor=none;rotation=0;fontStyle=1;movable=1;rotatable=1;deletable=1;editable=1;locked=0;connectable=1;" parent="1" vertex="1" connectable="0">
          <mxGeometry x="269.9972936305764" y="241.00034989391435" as="geometry" />
        </mxCell>
      </root>
    </mxGraphModel>
  </diagram>
  <diagram name="Diagrama de actividades - Visualizacion" id="GTMApp1Xhj-aCyUcMnvB">
    <mxGraphModel dx="1434" dy="836" grid="1" gridSize="10" guides="1" tooltips="1" connect="1" arrows="1" fold="1" page="1" pageScale="1" pageWidth="1169" pageHeight="827" background="none" math="0" shadow="1">
      <root>
        <mxCell id="pa2s6Kx3N8daHTj6Uscy-0" />
        <mxCell id="pa2s6Kx3N8daHTj6Uscy-1" parent="pa2s6Kx3N8daHTj6Uscy-0" />
        <mxCell id="pa2s6Kx3N8daHTj6Uscy-2" style="rounded=0;orthogonalLoop=1;jettySize=auto;html=1;orthogonal=1;entryX=0.5;entryY=0;entryDx=0;entryDy=0;shadow=1;" parent="pa2s6Kx3N8daHTj6Uscy-1" source="pa2s6Kx3N8daHTj6Uscy-8" target="pa2s6Kx3N8daHTj6Uscy-20" edge="1">
          <mxGeometry relative="1" as="geometry" />
        </mxCell>
        <mxCell id="pa2s6Kx3N8daHTj6Uscy-3" style="rounded=0;orthogonalLoop=1;jettySize=auto;html=1;orthogonal=1;entryX=0.5;entryY=0;entryDx=0;entryDy=0;shadow=1;" parent="pa2s6Kx3N8daHTj6Uscy-1" source="pa2s6Kx3N8daHTj6Uscy-8" target="pa2s6Kx3N8daHTj6Uscy-18" edge="1">
          <mxGeometry relative="1" as="geometry" />
        </mxCell>
        <mxCell id="pa2s6Kx3N8daHTj6Uscy-4" style="rounded=0;orthogonalLoop=1;jettySize=auto;html=1;orthogonal=1;entryX=0.5;entryY=0;entryDx=0;entryDy=0;shadow=1;" parent="pa2s6Kx3N8daHTj6Uscy-1" source="pa2s6Kx3N8daHTj6Uscy-8" target="pa2s6Kx3N8daHTj6Uscy-16" edge="1">
          <mxGeometry relative="1" as="geometry" />
        </mxCell>
        <mxCell id="pa2s6Kx3N8daHTj6Uscy-5" style="rounded=0;orthogonalLoop=1;jettySize=auto;html=1;orthogonal=1;entryX=0.5;entryY=0;entryDx=0;entryDy=0;shadow=1;" parent="pa2s6Kx3N8daHTj6Uscy-1" source="pa2s6Kx3N8daHTj6Uscy-8" target="pa2s6Kx3N8daHTj6Uscy-12" edge="1">
          <mxGeometry relative="1" as="geometry" />
        </mxCell>
        <mxCell id="pa2s6Kx3N8daHTj6Uscy-6" style="rounded=0;orthogonalLoop=1;jettySize=auto;html=1;orthogonal=1;entryX=0.5;entryY=0;entryDx=0;entryDy=0;shadow=1;strokeColor=#FF0000;" parent="pa2s6Kx3N8daHTj6Uscy-1" source="pa2s6Kx3N8daHTj6Uscy-8" target="pa2s6Kx3N8daHTj6Uscy-14" edge="1">
          <mxGeometry relative="1" as="geometry" />
        </mxCell>
        <mxCell id="pa2s6Kx3N8daHTj6Uscy-7" style="rounded=0;orthogonalLoop=1;jettySize=auto;html=1;orthogonal=1;entryX=0.5;entryY=0;entryDx=0;entryDy=0;shadow=1;" parent="pa2s6Kx3N8daHTj6Uscy-1" source="pa2s6Kx3N8daHTj6Uscy-8" target="pa2s6Kx3N8daHTj6Uscy-10" edge="1">
          <mxGeometry relative="1" as="geometry" />
        </mxCell>
        <mxCell id="pa2s6Kx3N8daHTj6Uscy-8" value="Inicio" style="ellipse;fontStyle=1;strokeColor=#FF0000;" parent="pa2s6Kx3N8daHTj6Uscy-1" vertex="1">
          <mxGeometry x="310" width="40" height="40" as="geometry" />
        </mxCell>
        <mxCell id="pa2s6Kx3N8daHTj6Uscy-9" style="rounded=0;orthogonalLoop=1;jettySize=auto;html=1;orthogonal=1;exitX=0.5;exitY=1;exitDx=0;exitDy=0;entryX=0.5;entryY=0;entryDx=0;entryDy=0;shadow=1;" parent="pa2s6Kx3N8daHTj6Uscy-1" source="pa2s6Kx3N8daHTj6Uscy-10" target="pa2s6Kx3N8daHTj6Uscy-24" edge="1">
          <mxGeometry relative="1" as="geometry">
            <mxPoint x="480" y="110" as="sourcePoint" />
          </mxGeometry>
        </mxCell>
        <mxCell id="pa2s6Kx3N8daHTj6Uscy-10" value="Actividad &lt;b&gt;1.2&lt;/b&gt;&lt;div&gt;t&amp;nbsp; = 20 h&lt;/div&gt;" style="html=1;dashed=0;whiteSpace=wrap;fillColor=#dae8fc;strokeColor=#6c8ebf;shadow=1;" parent="pa2s6Kx3N8daHTj6Uscy-1" vertex="1">
          <mxGeometry x="450.00000000000006" y="70" width="80" height="40" as="geometry" />
        </mxCell>
        <mxCell id="pa2s6Kx3N8daHTj6Uscy-11" style="rounded=0;orthogonalLoop=1;jettySize=auto;html=1;orthogonal=1;exitX=0.5;exitY=1;exitDx=0;exitDy=0;entryX=0.5;entryY=0;entryDx=0;entryDy=0;shadow=1;" parent="pa2s6Kx3N8daHTj6Uscy-1" source="pa2s6Kx3N8daHTj6Uscy-12" target="pa2s6Kx3N8daHTj6Uscy-26" edge="1">
          <mxGeometry relative="1" as="geometry" />
        </mxCell>
        <mxCell id="pa2s6Kx3N8daHTj6Uscy-12" value="Actividad &lt;b&gt;1.1&lt;/b&gt;&lt;div&gt;t&amp;nbsp; = 20 h&lt;/div&gt;" style="html=1;dashed=0;whiteSpace=wrap;fillColor=#dae8fc;strokeColor=#6c8ebf;shadow=1;" parent="pa2s6Kx3N8daHTj6Uscy-1" vertex="1">
          <mxGeometry x="560" y="70" width="80" height="40" as="geometry" />
        </mxCell>
        <mxCell id="pa2s6Kx3N8daHTj6Uscy-13" style="rounded=0;orthogonalLoop=1;jettySize=auto;html=1;orthogonal=1;entryX=0.5;entryY=0;entryDx=0;entryDy=0;exitX=0.5;exitY=1;exitDx=0;exitDy=0;shadow=1;strokeColor=#FF0000;" parent="pa2s6Kx3N8daHTj6Uscy-1" source="pa2s6Kx3N8daHTj6Uscy-14" target="iROkz94Ru94ba2oJ3RzW-0" edge="1">
          <mxGeometry relative="1" as="geometry" />
        </mxCell>
        <mxCell id="pa2s6Kx3N8daHTj6Uscy-14" value="Actividad&lt;b&gt; 1.3&lt;/b&gt;&lt;div&gt;t&amp;nbsp; = 30 h&lt;/div&gt;" style="html=1;dashed=0;whiteSpace=wrap;fillColor=#dae8fc;strokeColor=#FF0000;shadow=1;gradientColor=none;" parent="pa2s6Kx3N8daHTj6Uscy-1" vertex="1">
          <mxGeometry x="343.33000000000004" y="70" width="80" height="40" as="geometry" />
        </mxCell>
        <mxCell id="pa2s6Kx3N8daHTj6Uscy-15" style="rounded=0;orthogonalLoop=1;jettySize=auto;html=1;orthogonal=1;shadow=1;" parent="pa2s6Kx3N8daHTj6Uscy-1" source="pa2s6Kx3N8daHTj6Uscy-16" target="pa2s6Kx3N8daHTj6Uscy-28" edge="1">
          <mxGeometry relative="1" as="geometry" />
        </mxCell>
        <mxCell id="pa2s6Kx3N8daHTj6Uscy-16" value="Actividad &lt;b&gt;6.1&lt;/b&gt;&lt;div&gt;t&amp;nbsp; = 10 h&lt;/div&gt;" style="html=1;dashed=0;whiteSpace=wrap;fillColor=#d5e8d4;strokeColor=#82b366;shadow=1;" parent="pa2s6Kx3N8daHTj6Uscy-1" vertex="1">
          <mxGeometry x="240" y="70" width="80" height="40" as="geometry" />
        </mxCell>
        <mxCell id="pa2s6Kx3N8daHTj6Uscy-17" style="rounded=0;orthogonalLoop=1;jettySize=auto;html=1;orthogonal=1;exitX=0.5;exitY=1;exitDx=0;exitDy=0;shadow=1;entryX=0.5;entryY=0;entryDx=0;entryDy=0;" parent="pa2s6Kx3N8daHTj6Uscy-1" source="pa2s6Kx3N8daHTj6Uscy-18" target="pa2s6Kx3N8daHTj6Uscy-70" edge="1">
          <mxGeometry relative="1" as="geometry" />
        </mxCell>
        <mxCell id="pa2s6Kx3N8daHTj6Uscy-18" value="Actividad &lt;b&gt;6.3&lt;/b&gt;&lt;div&gt;t&amp;nbsp; = 10 h&lt;/div&gt;" style="html=1;dashed=0;whiteSpace=wrap;fillColor=#d5e8d4;strokeColor=#82b366;shadow=1;" parent="pa2s6Kx3N8daHTj6Uscy-1" vertex="1">
          <mxGeometry x="133.33" y="70" width="80" height="40" as="geometry" />
        </mxCell>
        <mxCell id="pa2s6Kx3N8daHTj6Uscy-19" style="rounded=0;orthogonalLoop=1;jettySize=auto;html=1;orthogonal=1;exitX=0.5;exitY=1;exitDx=0;exitDy=0;shadow=1;entryX=0.5;entryY=0;entryDx=0;entryDy=0;" parent="pa2s6Kx3N8daHTj6Uscy-1" source="pa2s6Kx3N8daHTj6Uscy-20" target="pa2s6Kx3N8daHTj6Uscy-70" edge="1">
          <mxGeometry relative="1" as="geometry" />
        </mxCell>
        <mxCell id="pa2s6Kx3N8daHTj6Uscy-20" value="Actividad &lt;b&gt;6.4&lt;/b&gt;&lt;div&gt;t&amp;nbsp; = 10 h&lt;/div&gt;" style="html=1;dashed=0;whiteSpace=wrap;fillColor=#d5e8d4;strokeColor=#82b366;shadow=1;" parent="pa2s6Kx3N8daHTj6Uscy-1" vertex="1">
          <mxGeometry x="23.33" y="70" width="80" height="40" as="geometry" />
        </mxCell>
        <mxCell id="pa2s6Kx3N8daHTj6Uscy-21" style="rounded=0;orthogonalLoop=1;jettySize=auto;html=1;orthogonal=1;exitX=0.5;exitY=1;exitDx=0;exitDy=0;shadow=1;strokeColor=#FF0000;" parent="pa2s6Kx3N8daHTj6Uscy-1" source="pa2s6Kx3N8daHTj6Uscy-24" target="pa2s6Kx3N8daHTj6Uscy-34" edge="1">
          <mxGeometry relative="1" as="geometry" />
        </mxCell>
        <mxCell id="pa2s6Kx3N8daHTj6Uscy-22" style="rounded=0;orthogonalLoop=1;jettySize=auto;html=1;orthogonal=1;exitX=0.5;exitY=1;exitDx=0;exitDy=0;entryX=0.5;entryY=0;entryDx=0;entryDy=0;shadow=1;" parent="pa2s6Kx3N8daHTj6Uscy-1" source="pa2s6Kx3N8daHTj6Uscy-24" target="pa2s6Kx3N8daHTj6Uscy-32" edge="1">
          <mxGeometry relative="1" as="geometry" />
        </mxCell>
        <mxCell id="pa2s6Kx3N8daHTj6Uscy-23" style="rounded=0;orthogonalLoop=1;jettySize=auto;html=1;orthogonal=1;exitX=0.5;exitY=1;exitDx=0;exitDy=0;entryX=0.5;entryY=0;entryDx=0;entryDy=0;shadow=1;" parent="pa2s6Kx3N8daHTj6Uscy-1" source="pa2s6Kx3N8daHTj6Uscy-24" target="pa2s6Kx3N8daHTj6Uscy-30" edge="1">
          <mxGeometry relative="1" as="geometry" />
        </mxCell>
        <mxCell id="pa2s6Kx3N8daHTj6Uscy-24" value="Actividad &lt;b&gt;2.1&lt;/b&gt;&lt;div&gt;t&amp;nbsp; = 10 h&lt;/div&gt;" style="html=1;dashed=0;whiteSpace=wrap;fillColor=#ffe6cc;strokeColor=#FF0000;shadow=1;" parent="pa2s6Kx3N8daHTj6Uscy-1" vertex="1">
          <mxGeometry x="450" y="140" width="80" height="40" as="geometry" />
        </mxCell>
        <mxCell id="pa2s6Kx3N8daHTj6Uscy-25" style="rounded=0;orthogonalLoop=1;jettySize=auto;html=1;orthogonal=1;shadow=1;" parent="pa2s6Kx3N8daHTj6Uscy-1" source="pa2s6Kx3N8daHTj6Uscy-26" target="pa2s6Kx3N8daHTj6Uscy-39" edge="1">
          <mxGeometry relative="1" as="geometry" />
        </mxCell>
        <mxCell id="pa2s6Kx3N8daHTj6Uscy-26" value="Actividad &lt;b&gt;2.3&lt;/b&gt;&lt;div&gt;t&amp;nbsp; = 5 h&lt;/div&gt;" style="html=1;dashed=0;whiteSpace=wrap;fillColor=#ffe6cc;strokeColor=#d79b00;shadow=1;" parent="pa2s6Kx3N8daHTj6Uscy-1" vertex="1">
          <mxGeometry x="560" y="140" width="80" height="40" as="geometry" />
        </mxCell>
        <mxCell id="pa2s6Kx3N8daHTj6Uscy-27" style="rounded=0;orthogonalLoop=1;jettySize=auto;html=1;orthogonal=1;exitX=0;exitY=0.5;exitDx=0;exitDy=0;shadow=1;entryX=0.5;entryY=0;entryDx=0;entryDy=0;" parent="pa2s6Kx3N8daHTj6Uscy-1" source="pa2s6Kx3N8daHTj6Uscy-28" target="pa2s6Kx3N8daHTj6Uscy-70" edge="1">
          <mxGeometry relative="1" as="geometry" />
        </mxCell>
        <mxCell id="pa2s6Kx3N8daHTj6Uscy-28" value="Actividad &lt;b&gt;6.2&lt;/b&gt;&lt;div&gt;t&amp;nbsp; = 10 h&lt;/div&gt;" style="html=1;dashed=0;whiteSpace=wrap;fillColor=#d5e8d4;strokeColor=#82b366;shadow=1;" parent="pa2s6Kx3N8daHTj6Uscy-1" vertex="1">
          <mxGeometry x="240" y="140" width="80" height="40" as="geometry" />
        </mxCell>
        <mxCell id="pa2s6Kx3N8daHTj6Uscy-29" style="rounded=0;orthogonalLoop=1;jettySize=auto;html=1;orthogonal=1;exitX=0.5;exitY=1;exitDx=0;exitDy=0;entryX=0.5;entryY=0;entryDx=0;entryDy=0;shadow=1;" parent="pa2s6Kx3N8daHTj6Uscy-1" source="pa2s6Kx3N8daHTj6Uscy-30" target="pa2s6Kx3N8daHTj6Uscy-37" edge="1">
          <mxGeometry relative="1" as="geometry" />
        </mxCell>
        <mxCell id="pa2s6Kx3N8daHTj6Uscy-30" value="Actividad &lt;b&gt;2.2&lt;/b&gt;&lt;div&gt;t&amp;nbsp; = 5 h&lt;/div&gt;" style="html=1;dashed=0;whiteSpace=wrap;fillColor=#ffe6cc;strokeColor=#d79b00;shadow=1;" parent="pa2s6Kx3N8daHTj6Uscy-1" vertex="1">
          <mxGeometry x="450" y="210" width="80" height="40" as="geometry" />
        </mxCell>
        <mxCell id="pa2s6Kx3N8daHTj6Uscy-31" style="rounded=0;orthogonalLoop=1;jettySize=auto;html=1;orthogonal=1;exitX=0.5;exitY=1;exitDx=0;exitDy=0;entryX=0.5;entryY=0;entryDx=0;entryDy=0;shadow=1;" parent="pa2s6Kx3N8daHTj6Uscy-1" source="pa2s6Kx3N8daHTj6Uscy-32" target="pa2s6Kx3N8daHTj6Uscy-37" edge="1">
          <mxGeometry relative="1" as="geometry" />
        </mxCell>
        <mxCell id="pa2s6Kx3N8daHTj6Uscy-32" value="Actividad &lt;b&gt;2.4&lt;/b&gt;&lt;div&gt;t&amp;nbsp; = 10 h&lt;/div&gt;" style="html=1;dashed=0;whiteSpace=wrap;fillColor=#ffe6cc;strokeColor=#d79b00;shadow=1;" parent="pa2s6Kx3N8daHTj6Uscy-1" vertex="1">
          <mxGeometry x="343.33000000000004" y="210" width="80" height="40" as="geometry" />
        </mxCell>
        <mxCell id="pa2s6Kx3N8daHTj6Uscy-33" style="rounded=0;orthogonalLoop=1;jettySize=auto;html=1;orthogonal=1;exitX=0.5;exitY=1;exitDx=0;exitDy=0;entryX=0.5;entryY=0;entryDx=0;entryDy=0;shadow=1;strokeColor=#FF0000;" parent="pa2s6Kx3N8daHTj6Uscy-1" source="pa2s6Kx3N8daHTj6Uscy-34" target="pa2s6Kx3N8daHTj6Uscy-37" edge="1">
          <mxGeometry relative="1" as="geometry" />
        </mxCell>
        <mxCell id="pa2s6Kx3N8daHTj6Uscy-34" value="Actividad &lt;b&gt;2.5&lt;/b&gt;&lt;div&gt;t&amp;nbsp; = 20 h&lt;/div&gt;" style="html=1;dashed=0;whiteSpace=wrap;fillColor=#ffe6cc;strokeColor=#FF0000;shadow=1;" parent="pa2s6Kx3N8daHTj6Uscy-1" vertex="1">
          <mxGeometry x="240" y="210" width="80" height="40" as="geometry" />
        </mxCell>
        <mxCell id="pa2s6Kx3N8daHTj6Uscy-35" style="rounded=0;orthogonalLoop=1;jettySize=auto;html=1;orthogonal=1;shadow=1;strokeColor=#FF0000;" parent="pa2s6Kx3N8daHTj6Uscy-1" source="pa2s6Kx3N8daHTj6Uscy-37" target="pa2s6Kx3N8daHTj6Uscy-45" edge="1">
          <mxGeometry relative="1" as="geometry" />
        </mxCell>
        <mxCell id="pa2s6Kx3N8daHTj6Uscy-36" style="rounded=0;orthogonalLoop=1;jettySize=auto;html=1;orthogonal=1;shadow=1;" parent="pa2s6Kx3N8daHTj6Uscy-1" source="pa2s6Kx3N8daHTj6Uscy-37" target="pa2s6Kx3N8daHTj6Uscy-49" edge="1">
          <mxGeometry relative="1" as="geometry" />
        </mxCell>
        <mxCell id="pa2s6Kx3N8daHTj6Uscy-37" value="Actividad &lt;b&gt;3.1&lt;/b&gt;&lt;div&gt;t&amp;nbsp; = 20 h&lt;/div&gt;" style="html=1;dashed=0;whiteSpace=wrap;fillColor=#fff2cc;strokeColor=#FF0000;shadow=1;" parent="pa2s6Kx3N8daHTj6Uscy-1" vertex="1">
          <mxGeometry x="290" y="280" width="80" height="40" as="geometry" />
        </mxCell>
        <mxCell id="pa2s6Kx3N8daHTj6Uscy-38" style="rounded=0;orthogonalLoop=1;jettySize=auto;html=1;orthogonal=1;shadow=1;" parent="pa2s6Kx3N8daHTj6Uscy-1" source="pa2s6Kx3N8daHTj6Uscy-39" target="pa2s6Kx3N8daHTj6Uscy-62" edge="1">
          <mxGeometry relative="1" as="geometry" />
        </mxCell>
        <mxCell id="pa2s6Kx3N8daHTj6Uscy-39" value="Actividad &lt;b&gt;3.2&lt;/b&gt;&lt;div&gt;t&amp;nbsp; = 40 h&lt;/div&gt;" style="html=1;dashed=0;whiteSpace=wrap;fillColor=#fff2cc;strokeColor=#d6b656;shadow=1;" parent="pa2s6Kx3N8daHTj6Uscy-1" vertex="1">
          <mxGeometry x="562.73" y="210" width="80" height="40" as="geometry" />
        </mxCell>
        <mxCell id="pa2s6Kx3N8daHTj6Uscy-40" style="rounded=0;orthogonalLoop=1;jettySize=auto;html=1;orthogonal=1;shadow=1;strokeColor=#FF0000;" parent="pa2s6Kx3N8daHTj6Uscy-1" source="pa2s6Kx3N8daHTj6Uscy-41" target="pa2s6Kx3N8daHTj6Uscy-53" edge="1">
          <mxGeometry relative="1" as="geometry" />
        </mxCell>
        <mxCell id="pa2s6Kx3N8daHTj6Uscy-41" value="Actividad &lt;b&gt;4.3&lt;/b&gt;&lt;div&gt;t&amp;nbsp; = 30 h&lt;/div&gt;" style="html=1;dashed=0;whiteSpace=wrap;fillColor=#f5f5f5;strokeColor=#FF0000;shadow=1;fontColor=#333333;" parent="pa2s6Kx3N8daHTj6Uscy-1" vertex="1">
          <mxGeometry x="320.40999999999997" y="480" width="80" height="40" as="geometry" />
        </mxCell>
        <mxCell id="pa2s6Kx3N8daHTj6Uscy-42" style="rounded=0;orthogonalLoop=1;jettySize=auto;html=1;orthogonal=1;shadow=1;strokeColor=#FF0000;" parent="pa2s6Kx3N8daHTj6Uscy-1" source="pa2s6Kx3N8daHTj6Uscy-43" target="pa2s6Kx3N8daHTj6Uscy-47" edge="1">
          <mxGeometry relative="1" as="geometry" />
        </mxCell>
        <mxCell id="pa2s6Kx3N8daHTj6Uscy-43" value="&lt;font style=&quot;font-size: 12px;&quot;&gt;Actividad&lt;b style=&quot;&quot;&gt; 3.4.2&lt;/b&gt;&lt;/font&gt;&lt;div style=&quot;&quot;&gt;&lt;span style=&quot;background-color: initial;&quot;&gt;t&amp;nbsp; = 40 h&lt;/span&gt;&lt;br&gt;&lt;/div&gt;" style="html=1;dashed=0;whiteSpace=wrap;fillColor=#fff2cc;strokeColor=#FF0000;shadow=1;" parent="pa2s6Kx3N8daHTj6Uscy-1" vertex="1">
          <mxGeometry x="449.99625" y="350" width="80" height="40" as="geometry" />
        </mxCell>
        <mxCell id="pa2s6Kx3N8daHTj6Uscy-44" style="rounded=0;orthogonalLoop=1;jettySize=auto;html=1;orthogonal=1;shadow=1;strokeColor=#FF0000;" parent="pa2s6Kx3N8daHTj6Uscy-1" source="pa2s6Kx3N8daHTj6Uscy-45" target="pa2s6Kx3N8daHTj6Uscy-43" edge="1">
          <mxGeometry relative="1" as="geometry" />
        </mxCell>
        <mxCell id="pa2s6Kx3N8daHTj6Uscy-45" value="&lt;span style=&quot;&quot;&gt;&lt;font style=&quot;font-size: 12px;&quot;&gt;Actividad&lt;b style=&quot;&quot;&gt; 3.4.1&lt;/b&gt;&lt;/font&gt;&lt;/span&gt;&lt;div style=&quot;&quot;&gt;t&amp;nbsp; = 40 h&lt;/div&gt;" style="html=1;dashed=0;whiteSpace=wrap;fillColor=#fff2cc;strokeColor=#FF0000;shadow=1;" parent="pa2s6Kx3N8daHTj6Uscy-1" vertex="1">
          <mxGeometry x="450.0033333333333" y="280" width="80" height="40" as="geometry" />
        </mxCell>
        <mxCell id="pa2s6Kx3N8daHTj6Uscy-46" style="rounded=0;orthogonalLoop=1;jettySize=auto;html=1;orthogonal=1;shadow=1;exitX=0;exitY=0.5;exitDx=0;exitDy=0;entryX=0.5;entryY=0;entryDx=0;entryDy=0;strokeColor=#FF0000;" parent="pa2s6Kx3N8daHTj6Uscy-1" source="pa2s6Kx3N8daHTj6Uscy-47" target="pa2s6Kx3N8daHTj6Uscy-41" edge="1">
          <mxGeometry relative="1" as="geometry" />
        </mxCell>
        <mxCell id="pa2s6Kx3N8daHTj6Uscy-47" value="&lt;font style=&quot;font-size: 12px;&quot;&gt;Actividad&lt;b style=&quot;&quot;&gt; 3.4.3&lt;/b&gt;&lt;/font&gt;&lt;div style=&quot;&quot;&gt;t&amp;nbsp; = 20 h&lt;/div&gt;" style="html=1;dashed=0;whiteSpace=wrap;fillColor=#fff2cc;strokeColor=#FF0000;shadow=1;" parent="pa2s6Kx3N8daHTj6Uscy-1" vertex="1">
          <mxGeometry x="449.99999999999994" y="414" width="80" height="40" as="geometry" />
        </mxCell>
        <mxCell id="pa2s6Kx3N8daHTj6Uscy-48" style="rounded=0;orthogonalLoop=1;jettySize=auto;html=1;orthogonal=1;shadow=1;" parent="pa2s6Kx3N8daHTj6Uscy-1" source="pa2s6Kx3N8daHTj6Uscy-49" target="pa2s6Kx3N8daHTj6Uscy-51" edge="1">
          <mxGeometry relative="1" as="geometry" />
        </mxCell>
        <mxCell id="pa2s6Kx3N8daHTj6Uscy-49" value="Actividad &lt;b&gt;3.3&lt;/b&gt;&lt;div&gt;t&amp;nbsp; = 20 h&lt;/div&gt;" style="html=1;dashed=0;whiteSpace=wrap;fillColor=#fff2cc;strokeColor=#d6b656;shadow=1;" parent="pa2s6Kx3N8daHTj6Uscy-1" vertex="1">
          <mxGeometry x="290" y="340" width="80" height="40" as="geometry" />
        </mxCell>
        <mxCell id="pa2s6Kx3N8daHTj6Uscy-50" style="rounded=0;orthogonalLoop=1;jettySize=auto;html=1;orthogonal=1;shadow=1;exitX=0;exitY=0.5;exitDx=0;exitDy=0;entryX=0.5;entryY=0;entryDx=0;entryDy=0;" parent="pa2s6Kx3N8daHTj6Uscy-1" source="pa2s6Kx3N8daHTj6Uscy-51" target="pa2s6Kx3N8daHTj6Uscy-53" edge="1">
          <mxGeometry relative="1" as="geometry" />
        </mxCell>
        <mxCell id="pa2s6Kx3N8daHTj6Uscy-51" value="Actividad &lt;b&gt;4.2&lt;/b&gt;&lt;div&gt;t&amp;nbsp; = 5 h&lt;/div&gt;" style="html=1;dashed=0;whiteSpace=wrap;fillColor=#f5f5f5;strokeColor=#666666;shadow=1;fontColor=#333333;" parent="pa2s6Kx3N8daHTj6Uscy-1" vertex="1">
          <mxGeometry x="290" y="410" width="80" height="40" as="geometry" />
        </mxCell>
        <mxCell id="pa2s6Kx3N8daHTj6Uscy-52" style="rounded=0;orthogonalLoop=1;jettySize=auto;html=1;orthogonal=1;exitX=0.5;exitY=1;exitDx=0;exitDy=0;entryX=0;entryY=0.5;entryDx=0;entryDy=0;shadow=1;strokeColor=#FF0000;" parent="pa2s6Kx3N8daHTj6Uscy-1" source="pa2s6Kx3N8daHTj6Uscy-53" target="pa2s6Kx3N8daHTj6Uscy-56" edge="1">
          <mxGeometry relative="1" as="geometry" />
        </mxCell>
        <mxCell id="pa2s6Kx3N8daHTj6Uscy-53" value="Actividad &lt;b&gt;4.4&lt;/b&gt;&lt;div&gt;t&amp;nbsp; = 10 h&lt;/div&gt;" style="html=1;dashed=0;whiteSpace=wrap;fillColor=#f5f5f5;strokeColor=#FF0000;shadow=1;fontColor=#333333;" parent="pa2s6Kx3N8daHTj6Uscy-1" vertex="1">
          <mxGeometry x="160.4085185185185" y="480" width="80" height="40" as="geometry" />
        </mxCell>
        <mxCell id="pa2s6Kx3N8daHTj6Uscy-54" style="rounded=0;orthogonalLoop=1;jettySize=auto;html=1;orthogonal=1;shadow=1;strokeColor=#FF0000;" parent="pa2s6Kx3N8daHTj6Uscy-1" source="pa2s6Kx3N8daHTj6Uscy-56" target="pa2s6Kx3N8daHTj6Uscy-58" edge="1">
          <mxGeometry relative="1" as="geometry" />
        </mxCell>
        <mxCell id="pa2s6Kx3N8daHTj6Uscy-55" style="rounded=0;orthogonalLoop=1;jettySize=auto;html=1;orthogonal=1;shadow=1;" parent="pa2s6Kx3N8daHTj6Uscy-1" source="pa2s6Kx3N8daHTj6Uscy-56" target="pa2s6Kx3N8daHTj6Uscy-60" edge="1">
          <mxGeometry relative="1" as="geometry" />
        </mxCell>
        <mxCell id="pa2s6Kx3N8daHTj6Uscy-56" value="Actividad &lt;b&gt;5.1&lt;/b&gt;&lt;div&gt;t&amp;nbsp; = 10 h&lt;/div&gt;" style="html=1;dashed=0;whiteSpace=wrap;fillColor=#e1d5e7;strokeColor=#FF0000;shadow=1;" parent="pa2s6Kx3N8daHTj6Uscy-1" vertex="1">
          <mxGeometry x="320.41555555555556" y="550" width="80" height="40" as="geometry" />
        </mxCell>
        <mxCell id="pa2s6Kx3N8daHTj6Uscy-57" style="rounded=0;orthogonalLoop=1;jettySize=auto;html=1;orthogonal=1;shadow=1;strokeColor=#FF0000;" parent="pa2s6Kx3N8daHTj6Uscy-1" source="pa2s6Kx3N8daHTj6Uscy-58" target="pa2s6Kx3N8daHTj6Uscy-68" edge="1">
          <mxGeometry relative="1" as="geometry" />
        </mxCell>
        <mxCell id="pa2s6Kx3N8daHTj6Uscy-58" value="Actividad &lt;b&gt;5.4&lt;/b&gt;&lt;div&gt;t&amp;nbsp; = 20 h&lt;/div&gt;" style="html=1;dashed=0;whiteSpace=wrap;fillColor=#e1d5e7;strokeColor=#FF0000;shadow=1;" parent="pa2s6Kx3N8daHTj6Uscy-1" vertex="1">
          <mxGeometry x="320.40999999999997" y="620" width="80" height="40" as="geometry" />
        </mxCell>
        <mxCell id="pa2s6Kx3N8daHTj6Uscy-59" style="rounded=0;orthogonalLoop=1;jettySize=auto;html=1;orthogonal=1;shadow=1;entryX=0.5;entryY=0;entryDx=0;entryDy=0;" parent="pa2s6Kx3N8daHTj6Uscy-1" source="pa2s6Kx3N8daHTj6Uscy-60" target="pa2s6Kx3N8daHTj6Uscy-68" edge="1">
          <mxGeometry relative="1" as="geometry" />
        </mxCell>
        <mxCell id="pa2s6Kx3N8daHTj6Uscy-60" value="Actividad &lt;b&gt;5.3&lt;/b&gt;&lt;div&gt;t&amp;nbsp; = 10 h&lt;/div&gt;" style="html=1;dashed=0;whiteSpace=wrap;fillColor=#e1d5e7;strokeColor=#9673a6;shadow=1;" parent="pa2s6Kx3N8daHTj6Uscy-1" vertex="1">
          <mxGeometry x="160.41" y="550" width="80" height="40" as="geometry" />
        </mxCell>
        <mxCell id="pa2s6Kx3N8daHTj6Uscy-61" style="rounded=0;orthogonalLoop=1;jettySize=auto;html=1;orthogonal=1;shadow=1;" parent="pa2s6Kx3N8daHTj6Uscy-1" source="pa2s6Kx3N8daHTj6Uscy-62" target="pa2s6Kx3N8daHTj6Uscy-66" edge="1">
          <mxGeometry relative="1" as="geometry" />
        </mxCell>
        <mxCell id="pa2s6Kx3N8daHTj6Uscy-62" value="Actividad &lt;b&gt;4.1&lt;/b&gt;&lt;div&gt;t&amp;nbsp; = 5 h&lt;/div&gt;" style="html=1;dashed=0;whiteSpace=wrap;fillColor=#f5f5f5;strokeColor=#666666;shadow=1;fontColor=#333333;" parent="pa2s6Kx3N8daHTj6Uscy-1" vertex="1">
          <mxGeometry x="560" y="280" width="80" height="40" as="geometry" />
        </mxCell>
        <mxCell id="pa2s6Kx3N8daHTj6Uscy-63" style="rounded=0;orthogonalLoop=1;jettySize=auto;html=1;orthogonal=1;exitX=0;exitY=0.5;exitDx=0;exitDy=0;entryX=1;entryY=0.5;entryDx=0;entryDy=0;shadow=1;" parent="pa2s6Kx3N8daHTj6Uscy-1" source="pa2s6Kx3N8daHTj6Uscy-64" target="pa2s6Kx3N8daHTj6Uscy-43" edge="1">
          <mxGeometry relative="1" as="geometry" />
        </mxCell>
        <mxCell id="pa2s6Kx3N8daHTj6Uscy-64" value="Actividad &lt;b&gt;6.5&lt;/b&gt;&lt;div&gt;t&amp;nbsp; = 10 h&lt;/div&gt;" style="html=1;dashed=0;whiteSpace=wrap;fillColor=#d5e8d4;strokeColor=#82b366;shadow=1;" parent="pa2s6Kx3N8daHTj6Uscy-1" vertex="1">
          <mxGeometry x="562.73" y="414" width="80" height="40" as="geometry" />
        </mxCell>
        <mxCell id="pa2s6Kx3N8daHTj6Uscy-65" style="rounded=0;orthogonalLoop=1;jettySize=auto;html=1;orthogonal=1;shadow=1;" parent="pa2s6Kx3N8daHTj6Uscy-1" source="pa2s6Kx3N8daHTj6Uscy-66" target="pa2s6Kx3N8daHTj6Uscy-64" edge="1">
          <mxGeometry relative="1" as="geometry" />
        </mxCell>
        <mxCell id="pa2s6Kx3N8daHTj6Uscy-66" value="Actividad &lt;b&gt;5.2&lt;/b&gt;&lt;div&gt;t&amp;nbsp; = 10 h&lt;/div&gt;" style="html=1;dashed=0;whiteSpace=wrap;fillColor=#e1d5e7;strokeColor=#9673a6;shadow=1;" parent="pa2s6Kx3N8daHTj6Uscy-1" vertex="1">
          <mxGeometry x="560" y="350" width="80" height="40" as="geometry" />
        </mxCell>
        <mxCell id="pa2s6Kx3N8daHTj6Uscy-67" style="rounded=0;orthogonalLoop=1;jettySize=auto;html=1;orthogonal=1;shadow=1;strokeColor=#FF0000;" parent="pa2s6Kx3N8daHTj6Uscy-1" source="pa2s6Kx3N8daHTj6Uscy-68" target="pa2s6Kx3N8daHTj6Uscy-70" edge="1">
          <mxGeometry relative="1" as="geometry" />
        </mxCell>
        <mxCell id="pa2s6Kx3N8daHTj6Uscy-68" value="Actividad &lt;b&gt;7.1&lt;/b&gt;&lt;div&gt;t&amp;nbsp; = 20 h&lt;/div&gt;" style="html=1;dashed=0;whiteSpace=wrap;fillColor=#f8cecc;strokeColor=#FF0000;shadow=1;" parent="pa2s6Kx3N8daHTj6Uscy-1" vertex="1">
          <mxGeometry x="30" y="620" width="80" height="40" as="geometry" />
        </mxCell>
        <mxCell id="pa2s6Kx3N8daHTj6Uscy-69" style="rounded=0;orthogonalLoop=1;jettySize=auto;html=1;orthogonal=1;shadow=1;strokeColor=#FF0000;" parent="pa2s6Kx3N8daHTj6Uscy-1" source="pa2s6Kx3N8daHTj6Uscy-70" target="pa2s6Kx3N8daHTj6Uscy-72" edge="1">
          <mxGeometry relative="1" as="geometry" />
        </mxCell>
        <mxCell id="pa2s6Kx3N8daHTj6Uscy-70" value="Actividad &lt;b&gt;7.2&lt;/b&gt;&lt;div&gt;t&amp;nbsp; = 40 h&lt;/div&gt;" style="html=1;dashed=0;whiteSpace=wrap;fillColor=#f8cecc;strokeColor=#FF0000;shadow=1;" parent="pa2s6Kx3N8daHTj6Uscy-1" vertex="1">
          <mxGeometry x="23.329999999999984" y="210" width="80" height="40" as="geometry" />
        </mxCell>
        <mxCell id="pa2s6Kx3N8daHTj6Uscy-71" style="rounded=0;orthogonalLoop=1;jettySize=auto;html=1;orthogonal=1;exitX=0.5;exitY=0;exitDx=0;exitDy=0;shadow=1;strokeColor=#FF0000;entryX=0.5;entryY=0;entryDx=0;entryDy=0;" parent="pa2s6Kx3N8daHTj6Uscy-1" source="pa2s6Kx3N8daHTj6Uscy-72" target="HtSylTGzw_gOF4rSugB7-0" edge="1">
          <mxGeometry relative="1" as="geometry" />
        </mxCell>
        <mxCell id="pa2s6Kx3N8daHTj6Uscy-72" value="Actividad &lt;b&gt;7.3&lt;/b&gt;&lt;div&gt;t&amp;nbsp; = 40 h&lt;/div&gt;" style="html=1;dashed=0;whiteSpace=wrap;fillColor=#f8cecc;strokeColor=#FF0000;shadow=1;" parent="pa2s6Kx3N8daHTj6Uscy-1" vertex="1">
          <mxGeometry x="133.32999999999998" y="210" width="80" height="40" as="geometry" />
        </mxCell>
        <mxCell id="pa2s6Kx3N8daHTj6Uscy-73" value="Fin" style="ellipse;fontStyle=1;strokeColor=#FF0000;" parent="pa2s6Kx3N8daHTj6Uscy-1" vertex="1">
          <mxGeometry x="153.32999999999998" y="414" width="40" height="40" as="geometry" />
        </mxCell>
        <mxCell id="OKMsd--Ky4ekKPY4VzWj-42" value="" style="group" parent="pa2s6Kx3N8daHTj6Uscy-1" vertex="1" connectable="0">
          <mxGeometry x="400.42" y="520" width="240" height="150" as="geometry" />
        </mxCell>
        <mxCell id="OKMsd--Ky4ekKPY4VzWj-23" value="&lt;ol&gt;&lt;li&gt;&lt;span style=&quot;background-color: initial;&quot;&gt;AnÃ¡lisis e investigaciÃ³n&lt;/span&gt;&lt;/li&gt;&lt;/ol&gt;" style="text;html=1;align=left;verticalAlign=middle;whiteSpace=wrap;rounded=0;" parent="OKMsd--Ky4ekKPY4VzWj-42" vertex="1">
          <mxGeometry width="190" height="30" as="geometry" />
        </mxCell>
        <mxCell id="OKMsd--Ky4ekKPY4VzWj-24" value="" style="rounded=0;whiteSpace=wrap;html=1;fillColor=#dae8fc;strokeColor=#6c8ebf;" parent="OKMsd--Ky4ekKPY4VzWj-42" vertex="1">
          <mxGeometry x="220" y="5" width="20" height="20" as="geometry" />
        </mxCell>
        <mxCell id="OKMsd--Ky4ekKPY4VzWj-27" value="&lt;ol start=&quot;2&quot;&gt;&lt;li&gt;&lt;span style=&quot;background-color: initial;&quot;&gt;DiseÃ±o del sistema&lt;/span&gt;&lt;/li&gt;&lt;/ol&gt;" style="text;html=1;align=left;verticalAlign=middle;whiteSpace=wrap;rounded=0;" parent="OKMsd--Ky4ekKPY4VzWj-42" vertex="1">
          <mxGeometry y="20" width="190" height="30" as="geometry" />
        </mxCell>
        <mxCell id="OKMsd--Ky4ekKPY4VzWj-28" value="" style="rounded=0;whiteSpace=wrap;html=1;fillColor=#ffe6cc;strokeColor=#d79b00;" parent="OKMsd--Ky4ekKPY4VzWj-42" vertex="1">
          <mxGeometry x="220" y="25" width="20" height="20" as="geometry" />
        </mxCell>
        <mxCell id="OKMsd--Ky4ekKPY4VzWj-29" value="&lt;ol start=&quot;3&quot;&gt;&lt;li&gt;&lt;span style=&quot;background-color: initial;&quot;&gt;ConstrucciÃ³n del sistema&lt;/span&gt;&lt;/li&gt;&lt;/ol&gt;" style="text;html=1;align=left;verticalAlign=middle;whiteSpace=wrap;rounded=0;" parent="OKMsd--Ky4ekKPY4VzWj-42" vertex="1">
          <mxGeometry y="40" width="220" height="30" as="geometry" />
        </mxCell>
        <mxCell id="OKMsd--Ky4ekKPY4VzWj-31" value="" style="rounded=0;whiteSpace=wrap;html=1;fillColor=#fff2cc;strokeColor=#d6b656;" parent="OKMsd--Ky4ekKPY4VzWj-42" vertex="1">
          <mxGeometry x="220" y="45" width="20" height="20" as="geometry" />
        </mxCell>
        <mxCell id="OKMsd--Ky4ekKPY4VzWj-32" value="&lt;ol start=&quot;4&quot;&gt;&lt;li&gt;&lt;span style=&quot;background-color: initial;&quot;&gt;ValidaciÃ³n y verificaciÃ³n&lt;/span&gt;&lt;/li&gt;&lt;/ol&gt;" style="text;html=1;align=left;verticalAlign=middle;whiteSpace=wrap;rounded=0;" parent="OKMsd--Ky4ekKPY4VzWj-42" vertex="1">
          <mxGeometry y="60" width="220" height="30" as="geometry" />
        </mxCell>
        <mxCell id="OKMsd--Ky4ekKPY4VzWj-33" value="" style="rounded=0;whiteSpace=wrap;html=1;fillColor=#f5f5f5;fontColor=#333333;strokeColor=#666666;" parent="OKMsd--Ky4ekKPY4VzWj-42" vertex="1">
          <mxGeometry x="220" y="65" width="20" height="20" as="geometry" />
        </mxCell>
        <mxCell id="OKMsd--Ky4ekKPY4VzWj-34" value="" style="rounded=0;whiteSpace=wrap;html=1;fillColor=#e1d5e7;strokeColor=#9673a6;" parent="OKMsd--Ky4ekKPY4VzWj-42" vertex="1">
          <mxGeometry x="220" y="85" width="20" height="20" as="geometry" />
        </mxCell>
        <mxCell id="OKMsd--Ky4ekKPY4VzWj-36" value="" style="rounded=0;whiteSpace=wrap;html=1;fillColor=#d5e8d4;strokeColor=#82b366;" parent="OKMsd--Ky4ekKPY4VzWj-42" vertex="1">
          <mxGeometry x="220" y="105" width="20" height="20" as="geometry" />
        </mxCell>
        <mxCell id="OKMsd--Ky4ekKPY4VzWj-37" value="" style="rounded=0;whiteSpace=wrap;html=1;fillColor=#f8cecc;strokeColor=#b85450;" parent="OKMsd--Ky4ekKPY4VzWj-42" vertex="1">
          <mxGeometry x="220" y="125" width="20" height="20" as="geometry" />
        </mxCell>
        <mxCell id="OKMsd--Ky4ekKPY4VzWj-38" value="&lt;ol start=&quot;5&quot;&gt;&lt;li&gt;&lt;span style=&quot;background-color: initial;&quot;&gt;ImplantaciÃ³n&lt;/span&gt;&lt;/li&gt;&lt;/ol&gt;" style="text;html=1;align=left;verticalAlign=middle;whiteSpace=wrap;rounded=0;" parent="OKMsd--Ky4ekKPY4VzWj-42" vertex="1">
          <mxGeometry y="80" width="220" height="30" as="geometry" />
        </mxCell>
        <mxCell id="OKMsd--Ky4ekKPY4VzWj-39" value="&lt;ol start=&quot;6&quot;&gt;&lt;li&gt;&lt;span style=&quot;background-color: initial;&quot;&gt;Actividades de gestiÃ³n&lt;/span&gt;&lt;/li&gt;&lt;/ol&gt;" style="text;html=1;align=left;verticalAlign=middle;whiteSpace=wrap;rounded=0;" parent="OKMsd--Ky4ekKPY4VzWj-42" vertex="1">
          <mxGeometry y="100" width="220" height="30" as="geometry" />
        </mxCell>
        <mxCell id="OKMsd--Ky4ekKPY4VzWj-40" value="&lt;ol start=&quot;7&quot;&gt;&lt;li&gt;&lt;span style=&quot;background-color: initial;&quot;&gt;Actividades de documentaciÃ³n&lt;/span&gt;&lt;/li&gt;&lt;/ol&gt;" style="text;html=1;align=left;verticalAlign=middle;whiteSpace=wrap;rounded=0;" parent="OKMsd--Ky4ekKPY4VzWj-42" vertex="1">
          <mxGeometry y="120" width="220" height="30" as="geometry" />
        </mxCell>
        <mxCell id="OKMsd--Ky4ekKPY4VzWj-45" value="&lt;b&gt;&lt;font style=&quot;font-size: 14px;&quot;&gt;Referencias&lt;/font&gt;&lt;/b&gt;" style="text;html=1;align=center;verticalAlign=middle;whiteSpace=wrap;rounded=0;" parent="pa2s6Kx3N8daHTj6Uscy-1" vertex="1">
          <mxGeometry x="440" y="490" width="60" height="30" as="geometry" />
        </mxCell>
        <mxCell id="iROkz94Ru94ba2oJ3RzW-1" style="edgeStyle=orthogonalEdgeStyle;rounded=0;orthogonalLoop=1;jettySize=auto;html=1;" parent="pa2s6Kx3N8daHTj6Uscy-1" source="iROkz94Ru94ba2oJ3RzW-0" target="pa2s6Kx3N8daHTj6Uscy-24" edge="1">
          <mxGeometry relative="1" as="geometry" />
        </mxCell>
        <mxCell id="iROkz94Ru94ba2oJ3RzW-0" value="Actividad&lt;b&gt; 1.4&lt;/b&gt;&lt;div&gt;t&amp;nbsp; = 30 h&lt;/div&gt;" style="html=1;dashed=0;whiteSpace=wrap;fillColor=#dae8fc;strokeColor=#FF0000;shadow=1;" parent="pa2s6Kx3N8daHTj6Uscy-1" vertex="1">
          <mxGeometry x="343.33" y="140" width="80" height="40" as="geometry" />
        </mxCell>
        <mxCell id="HtSylTGzw_gOF4rSugB7-1" style="edgeStyle=orthogonalEdgeStyle;rounded=0;orthogonalLoop=1;jettySize=auto;html=1;strokeColor=#FF0000;" parent="pa2s6Kx3N8daHTj6Uscy-1" source="HtSylTGzw_gOF4rSugB7-0" target="pa2s6Kx3N8daHTj6Uscy-73" edge="1">
          <mxGeometry relative="1" as="geometry" />
        </mxCell>
        <mxCell id="HtSylTGzw_gOF4rSugB7-0" value="Actividad &lt;b&gt;7.4&lt;/b&gt;&lt;div&gt;t&amp;nbsp; = 20 h&lt;/div&gt;" style="html=1;dashed=0;whiteSpace=wrap;fillColor=#f8cecc;strokeColor=#FF0000;shadow=1;" parent="pa2s6Kx3N8daHTj6Uscy-1" vertex="1">
          <mxGeometry x="133.32999999999998" y="280" width="80" height="40" as="geometry" />
        </mxCell>
      </root>
    </mxGraphModel>
  </diagram>
  <diagram id="XEc9JHogNfN3MXOsviv8" name="Diagrama de bloques - Formal">
    <mxGraphModel dx="1434" dy="836" grid="1" gridSize="10" guides="1" tooltips="1" connect="1" arrows="1" fold="1" page="1" pageScale="1" pageWidth="1169" pageHeight="827" math="0" shadow="0">
      <root>
        <mxCell id="0" />
        <mxCell id="1" parent="0" />
        <mxCell id="-vEqis4BhIjp0CLl90aX-21" value="" style="shape=link;html=1;rounded=0;" parent="1" edge="1">
          <mxGeometry width="100" relative="1" as="geometry">
            <mxPoint x="20" y="400" as="sourcePoint" />
            <mxPoint x="800" y="400" as="targetPoint" />
          </mxGeometry>
        </mxCell>
        <mxCell id="-vEqis4BhIjp0CLl90aX-22" value="" style="endArrow=none;dashed=1;html=1;dashPattern=1 3;strokeWidth=2;rounded=0;" parent="1" edge="1">
          <mxGeometry width="50" height="50" relative="1" as="geometry">
            <mxPoint x="560" y="400" as="sourcePoint" />
            <mxPoint x="560" y="76" as="targetPoint" />
          </mxGeometry>
        </mxCell>
        <mxCell id="-vEqis4BhIjp0CLl90aX-26" value="" style="endArrow=none;dashed=1;html=1;dashPattern=1 3;strokeWidth=2;rounded=0;" parent="1" edge="1">
          <mxGeometry width="50" height="50" relative="1" as="geometry">
            <mxPoint x="710" y="400" as="sourcePoint" />
            <mxPoint x="710" y="76" as="targetPoint" />
          </mxGeometry>
        </mxCell>
        <mxCell id="-vEqis4BhIjp0CLl90aX-27" value="&lt;font style=&quot;font-size: 10px;&quot;&gt;Usuario&lt;/font&gt;&lt;div style=&quot;font-size: 10px;&quot;&gt;&lt;font style=&quot;font-size: 10px;&quot;&gt;geomÃ¡tica&lt;/font&gt;&lt;/div&gt;" style="shape=umlActor;html=1;verticalLabelPosition=bottom;verticalAlign=top;align=center;" parent="1" vertex="1">
          <mxGeometry x="615" y="210" width="30" height="60" as="geometry" />
        </mxCell>
        <mxCell id="-vEqis4BhIjp0CLl90aX-28" value="&lt;font style=&quot;font-size: 10px;&quot;&gt;Usuario&lt;/font&gt;&lt;div style=&quot;font-size: 10px;&quot;&gt;&lt;font style=&quot;font-size: 10px;&quot;&gt;Ã¡reas&amp;nbsp;&lt;/font&gt;&lt;span style=&quot;background-color: initial;&quot;&gt;verdes&lt;/span&gt;&lt;/div&gt;" style="shape=umlActor;html=1;verticalLabelPosition=bottom;verticalAlign=top;align=center;" parent="1" vertex="1">
          <mxGeometry x="750" y="275" width="30" height="60" as="geometry" />
        </mxCell>
        <mxCell id="-vEqis4BhIjp0CLl90aX-29" style="rounded=0;orthogonalLoop=1;jettySize=auto;html=1;entryX=0.5;entryY=0.5;entryDx=0;entryDy=0;entryPerimeter=0;edgeStyle=orthogonalEdgeStyle;" parent="1" source="-vEqis4BhIjp0CLl90aX-28" target="-vEqis4BhIjp0CLl90aX-27" edge="1">
          <mxGeometry relative="1" as="geometry">
            <Array as="points">
              <mxPoint x="765" y="240" />
            </Array>
          </mxGeometry>
        </mxCell>
        <mxCell id="-vEqis4BhIjp0CLl90aX-30" value="Solicita&lt;div&gt;imÃ¡genes&lt;/div&gt;&lt;div&gt;de&lt;/div&gt;&lt;div&gt;zona especÃ­fica&lt;/div&gt;" style="edgeLabel;html=1;align=center;verticalAlign=middle;resizable=0;points=[];" parent="-vEqis4BhIjp0CLl90aX-29" vertex="1" connectable="0">
          <mxGeometry x="-0.3947" y="-5" relative="1" as="geometry">
            <mxPoint x="-38" y="5" as="offset" />
          </mxGeometry>
        </mxCell>
        <mxCell id="-vEqis4BhIjp0CLl90aX-31" style="edgeStyle=orthogonalEdgeStyle;rounded=0;orthogonalLoop=1;jettySize=auto;html=1;entryX=0.988;entryY=0.493;entryDx=0;entryDy=0;entryPerimeter=0;" parent="1" source="-vEqis4BhIjp0CLl90aX-27" target="-vEqis4BhIjp0CLl90aX-23" edge="1">
          <mxGeometry relative="1" as="geometry">
            <Array as="points">
              <mxPoint x="631" y="190" />
              <mxPoint x="631" y="190" />
            </Array>
          </mxGeometry>
        </mxCell>
        <mxCell id="-vEqis4BhIjp0CLl90aX-32" value="Genera imÃ¡genes" style="edgeLabel;html=1;align=center;verticalAlign=middle;resizable=0;points=[];" parent="-vEqis4BhIjp0CLl90aX-31" vertex="1" connectable="0">
          <mxGeometry x="-0.0049" y="-2" relative="1" as="geometry">
            <mxPoint x="-1" y="2" as="offset" />
          </mxGeometry>
        </mxCell>
        <mxCell id="-vEqis4BhIjp0CLl90aX-40" value="Google&lt;div&gt;&amp;nbsp;maps&lt;/div&gt;" style="verticalAlign=top;align=center;spacingTop=8;spacingLeft=2;spacingRight=12;shape=cube;size=10;direction=south;fontStyle=4;html=1;whiteSpace=wrap;" parent="1" vertex="1">
          <mxGeometry x="410" y="410" width="95" height="50" as="geometry" />
        </mxCell>
        <mxCell id="-vEqis4BhIjp0CLl90aX-44" value="Ecosistema interno" style="text;strokeColor=none;fillColor=none;html=1;fontSize=24;fontStyle=1;verticalAlign=middle;align=left;" parent="1" vertex="1">
          <mxGeometry x="20" y="20" width="100" height="40" as="geometry" />
        </mxCell>
        <mxCell id="-vEqis4BhIjp0CLl90aX-45" value="GeomÃ¡tica" style="text;align=center;fontStyle=1;verticalAlign=middle;spacingLeft=3;spacingRight=3;strokeColor=none;rotatable=0;points=[[0,0.5],[1,0.5]];portConstraint=eastwest;html=1;" parent="1" vertex="1">
          <mxGeometry x="590" y="54" width="80" height="26" as="geometry" />
        </mxCell>
        <mxCell id="-vEqis4BhIjp0CLl90aX-46" value="DDSI" style="text;align=center;fontStyle=1;verticalAlign=middle;spacingLeft=3;spacingRight=3;strokeColor=none;rotatable=0;points=[[0,0.5],[1,0.5]];portConstraint=eastwest;html=1;" parent="1" vertex="1">
          <mxGeometry x="270" y="58" width="80" height="26" as="geometry" />
        </mxCell>
        <mxCell id="-vEqis4BhIjp0CLl90aX-47" value="Areas verdes" style="text;align=center;fontStyle=1;verticalAlign=middle;spacingLeft=3;spacingRight=3;strokeColor=none;rotatable=0;points=[[0,0.5],[1,0.5]];portConstraint=eastwest;html=1;" parent="1" vertex="1">
          <mxGeometry x="720" y="54" width="80" height="26" as="geometry" />
        </mxCell>
        <mxCell id="-vEqis4BhIjp0CLl90aX-48" value="Ecosistema externo" style="text;strokeColor=none;fillColor=none;html=1;fontSize=24;fontStyle=1;verticalAlign=middle;align=left;" parent="1" vertex="1">
          <mxGeometry x="20" y="415" width="100" height="40" as="geometry" />
        </mxCell>
        <mxCell id="-vEqis4BhIjp0CLl90aX-18" value="Plataforma" style="verticalAlign=top;align=left;spacingTop=8;spacingLeft=2;spacingRight=12;shape=cube;size=10;direction=south;fontStyle=4;html=1;whiteSpace=wrap;" parent="1" vertex="1">
          <mxGeometry x="20" y="84" width="530" height="266" as="geometry" />
        </mxCell>
        <mxCell id="-vEqis4BhIjp0CLl90aX-1" value="Orquestador de procesos" style="verticalAlign=top;align=left;spacingTop=8;spacingLeft=2;spacingRight=12;shape=cube;size=10;direction=south;fontStyle=4;html=1;whiteSpace=wrap;" parent="1" vertex="1">
          <mxGeometry x="30" y="124" width="500" height="216" as="geometry" />
        </mxCell>
        <mxCell id="-vEqis4BhIjp0CLl90aX-8" style="edgeStyle=orthogonalEdgeStyle;rounded=0;orthogonalLoop=1;jettySize=auto;html=1;" parent="1" source="-vEqis4BhIjp0CLl90aX-2" target="-vEqis4BhIjp0CLl90aX-3" edge="1">
          <mxGeometry relative="1" as="geometry" />
        </mxCell>
        <mxCell id="-vEqis4BhIjp0CLl90aX-9" value="Guarda&lt;div&gt;imÃ¡genes&lt;/div&gt;" style="edgeLabel;html=1;align=center;verticalAlign=middle;resizable=0;points=[];" parent="-vEqis4BhIjp0CLl90aX-8" vertex="1" connectable="0">
          <mxGeometry x="-0.1897" y="-1" relative="1" as="geometry">
            <mxPoint x="1" as="offset" />
          </mxGeometry>
        </mxCell>
        <mxCell id="-vEqis4BhIjp0CLl90aX-2" value="Scrapper" style="verticalAlign=top;align=center;spacingTop=8;spacingLeft=2;spacingRight=12;shape=cube;size=10;direction=south;fontStyle=4;html=1;whiteSpace=wrap;" parent="1" vertex="1">
          <mxGeometry x="410" y="160" width="90" height="50" as="geometry" />
        </mxCell>
        <mxCell id="-vEqis4BhIjp0CLl90aX-3" value="Repositorio&lt;div&gt;imÃ¡genes&lt;/div&gt;" style="verticalAlign=top;align=center;spacingTop=8;spacingLeft=2;spacingRight=12;shape=cube;size=10;direction=south;fontStyle=4;html=1;whiteSpace=wrap;" parent="1" vertex="1">
          <mxGeometry x="230" y="160" width="95" height="50" as="geometry" />
        </mxCell>
        <mxCell id="-vEqis4BhIjp0CLl90aX-10" style="edgeStyle=orthogonalEdgeStyle;rounded=0;orthogonalLoop=1;jettySize=auto;html=1;" parent="1" source="-vEqis4BhIjp0CLl90aX-4" target="-vEqis4BhIjp0CLl90aX-3" edge="1">
          <mxGeometry relative="1" as="geometry" />
        </mxCell>
        <mxCell id="-vEqis4BhIjp0CLl90aX-11" value="Realiza&lt;div&gt;detecciones&lt;/div&gt;" style="edgeLabel;html=1;align=center;verticalAlign=middle;resizable=0;points=[];" parent="-vEqis4BhIjp0CLl90aX-10" vertex="1" connectable="0">
          <mxGeometry x="-0.0347" y="3" relative="1" as="geometry">
            <mxPoint as="offset" />
          </mxGeometry>
        </mxCell>
        <mxCell id="-vEqis4BhIjp0CLl90aX-12" style="edgeStyle=orthogonalEdgeStyle;rounded=0;orthogonalLoop=1;jettySize=auto;html=1;" parent="1" source="-vEqis4BhIjp0CLl90aX-4" target="-vEqis4BhIjp0CLl90aX-5" edge="1">
          <mxGeometry relative="1" as="geometry" />
        </mxCell>
        <mxCell id="-vEqis4BhIjp0CLl90aX-13" value="Guarda&lt;div&gt;coordenadas&lt;/div&gt;&lt;div&gt;palmeras&lt;/div&gt;" style="edgeLabel;html=1;align=center;verticalAlign=middle;resizable=0;points=[];" parent="-vEqis4BhIjp0CLl90aX-12" vertex="1" connectable="0">
          <mxGeometry x="-0.2857" relative="1" as="geometry">
            <mxPoint y="5" as="offset" />
          </mxGeometry>
        </mxCell>
        <mxCell id="-vEqis4BhIjp0CLl90aX-4" value="Modelo IA" style="verticalAlign=top;align=center;spacingTop=8;spacingLeft=2;spacingRight=12;shape=cube;size=10;direction=south;fontStyle=4;html=1;whiteSpace=wrap;" parent="1" vertex="1">
          <mxGeometry x="40" y="160" width="95" height="50" as="geometry" />
        </mxCell>
        <mxCell id="-vEqis4BhIjp0CLl90aX-5" value="Base de datos" style="verticalAlign=top;align=center;spacingTop=8;spacingLeft=2;spacingRight=12;shape=cube;size=10;direction=south;fontStyle=4;html=1;whiteSpace=wrap;" parent="1" vertex="1">
          <mxGeometry x="40" y="280" width="95" height="50" as="geometry" />
        </mxCell>
        <mxCell id="-vEqis4BhIjp0CLl90aX-6" value="AplicaciÃ³n&lt;div&gt;web&lt;/div&gt;" style="verticalAlign=top;align=center;spacingTop=8;spacingLeft=2;spacingRight=12;shape=cube;size=10;direction=south;fontStyle=4;html=1;whiteSpace=wrap;" parent="1" vertex="1">
          <mxGeometry x="410" y="280" width="95" height="50" as="geometry" />
        </mxCell>
        <mxCell id="-vEqis4BhIjp0CLl90aX-14" style="edgeStyle=orthogonalEdgeStyle;rounded=0;orthogonalLoop=1;jettySize=auto;html=1;entryX=0.504;entryY=0.006;entryDx=0;entryDy=0;entryPerimeter=0;" parent="1" source="-vEqis4BhIjp0CLl90aX-6" target="-vEqis4BhIjp0CLl90aX-5" edge="1">
          <mxGeometry relative="1" as="geometry" />
        </mxCell>
        <mxCell id="-vEqis4BhIjp0CLl90aX-15" value="Obtiene&lt;div&gt;coordenadas&lt;/div&gt;&lt;div&gt;palmeras&lt;/div&gt;" style="edgeLabel;html=1;align=center;verticalAlign=middle;resizable=0;points=[];" parent="-vEqis4BhIjp0CLl90aX-14" vertex="1" connectable="0">
          <mxGeometry x="0.0935" y="1" relative="1" as="geometry">
            <mxPoint as="offset" />
          </mxGeometry>
        </mxCell>
        <mxCell id="fP03_HqTs0hlRCimagPH-16" value="" style="group" parent="1" vertex="1" connectable="0">
          <mxGeometry x="570" y="80" width="120" height="96" as="geometry" />
        </mxCell>
        <mxCell id="-vEqis4BhIjp0CLl90aX-23" value="SIG" style="verticalAlign=top;align=left;spacingTop=8;spacingLeft=2;spacingRight=12;shape=cube;size=10;direction=south;fontStyle=4;html=1;whiteSpace=wrap;" parent="fP03_HqTs0hlRCimagPH-16" vertex="1">
          <mxGeometry width="120" height="96" as="geometry" />
        </mxCell>
        <mxCell id="-vEqis4BhIjp0CLl90aX-25" value="MonteviMap" style="verticalAlign=top;align=center;spacingTop=8;spacingLeft=2;spacingRight=12;shape=cube;size=10;direction=south;fontStyle=4;html=1;whiteSpace=wrap;" parent="fP03_HqTs0hlRCimagPH-16" vertex="1">
          <mxGeometry x="10" y="35" width="95" height="50" as="geometry" />
        </mxCell>
        <mxCell id="-vEqis4BhIjp0CLl90aX-37" style="edgeStyle=none;rounded=0;orthogonalLoop=1;jettySize=auto;html=1;" parent="1" source="-vEqis4BhIjp0CLl90aX-28" target="-vEqis4BhIjp0CLl90aX-6" edge="1">
          <mxGeometry relative="1" as="geometry" />
        </mxCell>
        <mxCell id="-vEqis4BhIjp0CLl90aX-38" value="Consulta&lt;div&gt;resultados&amp;nbsp;&lt;/div&gt;&lt;div&gt;del vuelo&lt;/div&gt;" style="edgeLabel;html=1;align=center;verticalAlign=middle;resizable=0;points=[];" parent="-vEqis4BhIjp0CLl90aX-37" vertex="1" connectable="0">
          <mxGeometry x="-0.2762" y="3" relative="1" as="geometry">
            <mxPoint x="-104" y="-3" as="offset" />
          </mxGeometry>
        </mxCell>
        <mxCell id="-vEqis4BhIjp0CLl90aX-42" style="edgeStyle=none;rounded=0;orthogonalLoop=1;jettySize=auto;html=1;startArrow=classic;startFill=1;" parent="1" source="-vEqis4BhIjp0CLl90aX-6" target="-vEqis4BhIjp0CLl90aX-40" edge="1">
          <mxGeometry relative="1" as="geometry" />
        </mxCell>
        <mxCell id="-vEqis4BhIjp0CLl90aX-43" value="Genera&lt;div&gt;capa&lt;/div&gt;" style="edgeLabel;html=1;align=center;verticalAlign=middle;resizable=0;points=[];" parent="-vEqis4BhIjp0CLl90aX-42" vertex="1" connectable="0">
          <mxGeometry x="0.0992" y="-2" relative="1" as="geometry">
            <mxPoint as="offset" />
          </mxGeometry>
        </mxCell>
        <mxCell id="fP03_HqTs0hlRCimagPH-18" value="" style="endArrow=none;dashed=1;html=1;dashPattern=1 3;strokeWidth=2;rounded=0;" parent="1" edge="1">
          <mxGeometry width="50" height="50" relative="1" as="geometry">
            <mxPoint x="800" y="400" as="sourcePoint" />
            <mxPoint x="800" y="80" as="targetPoint" />
          </mxGeometry>
        </mxCell>
        <mxCell id="-vEqis4BhIjp0CLl90aX-35" style="edgeStyle=none;rounded=0;orthogonalLoop=1;jettySize=auto;html=1;" parent="1" source="-vEqis4BhIjp0CLl90aX-2" target="-vEqis4BhIjp0CLl90aX-25" edge="1">
          <mxGeometry relative="1" as="geometry" />
        </mxCell>
        <mxCell id="-vEqis4BhIjp0CLl90aX-36" value="Obtiene&lt;div&gt;imÃ¡genes&lt;/div&gt;" style="edgeLabel;html=1;align=center;verticalAlign=middle;resizable=0;points=[];" parent="-vEqis4BhIjp0CLl90aX-35" vertex="1" connectable="0">
          <mxGeometry x="0.2566" relative="1" as="geometry">
            <mxPoint x="-10" y="5" as="offset" />
          </mxGeometry>
        </mxCell>
      </root>
    </mxGraphModel>
  </diagram>
  <diagram name="Diagrama de bloques - Visualizacion" id="zbKfhaLSuJ5MAhJGsvd6">
    <mxGraphModel dx="1434" dy="836" grid="1" gridSize="10" guides="1" tooltips="1" connect="1" arrows="1" fold="1" page="1" pageScale="1" pageWidth="1169" pageHeight="827" math="0" shadow="0">
      <root>
        <mxCell id="ojbe93iXSj8wPcG-KATy-0" />
        <mxCell id="ojbe93iXSj8wPcG-KATy-1" parent="ojbe93iXSj8wPcG-KATy-0" />
        <mxCell id="ojbe93iXSj8wPcG-KATy-2" value="" style="shape=link;html=1;rounded=0;shadow=1;" parent="ojbe93iXSj8wPcG-KATy-1" edge="1">
          <mxGeometry width="100" relative="1" as="geometry">
            <mxPoint x="20" y="400" as="sourcePoint" />
            <mxPoint x="800" y="400" as="targetPoint" />
          </mxGeometry>
        </mxCell>
        <mxCell id="ojbe93iXSj8wPcG-KATy-3" value="" style="endArrow=none;dashed=1;html=1;dashPattern=1 3;strokeWidth=2;rounded=0;sketch=1;curveFitting=1;jiggle=2;shadow=1;" parent="ojbe93iXSj8wPcG-KATy-1" edge="1">
          <mxGeometry width="50" height="50" relative="1" as="geometry">
            <mxPoint x="560" y="400" as="sourcePoint" />
            <mxPoint x="560" y="76" as="targetPoint" />
          </mxGeometry>
        </mxCell>
        <mxCell id="ojbe93iXSj8wPcG-KATy-4" value="" style="endArrow=none;dashed=1;html=1;dashPattern=1 3;strokeWidth=2;rounded=0;sketch=1;curveFitting=1;jiggle=2;shadow=1;" parent="ojbe93iXSj8wPcG-KATy-1" edge="1">
          <mxGeometry width="50" height="50" relative="1" as="geometry">
            <mxPoint x="710" y="400" as="sourcePoint" />
            <mxPoint x="710" y="76" as="targetPoint" />
          </mxGeometry>
        </mxCell>
        <mxCell id="ojbe93iXSj8wPcG-KATy-5" value="&lt;font style=&quot;font-size: 10px;&quot;&gt;Usuario&lt;/font&gt;&lt;div style=&quot;font-size: 10px;&quot;&gt;&lt;font style=&quot;font-size: 10px;&quot;&gt;geomÃ¡tica&lt;/font&gt;&lt;/div&gt;" style="shape=umlActor;html=1;verticalLabelPosition=bottom;verticalAlign=top;align=center;shadow=1;gradientColor=default;" parent="ojbe93iXSj8wPcG-KATy-1" vertex="1">
          <mxGeometry x="615" y="210" width="30" height="60" as="geometry" />
        </mxCell>
        <mxCell id="ojbe93iXSj8wPcG-KATy-6" value="&lt;font style=&quot;font-size: 10px;&quot;&gt;Usuario&lt;/font&gt;&lt;div style=&quot;font-size: 10px;&quot;&gt;&lt;font style=&quot;font-size: 10px;&quot;&gt;Ã¡reas&amp;nbsp;&lt;/font&gt;&lt;span style=&quot;background-color: initial;&quot;&gt;verdes&lt;/span&gt;&lt;/div&gt;" style="shape=umlActor;html=1;verticalLabelPosition=bottom;verticalAlign=top;align=center;shadow=1;gradientColor=default;" parent="ojbe93iXSj8wPcG-KATy-1" vertex="1">
          <mxGeometry x="750" y="275" width="30" height="60" as="geometry" />
        </mxCell>
        <mxCell id="ojbe93iXSj8wPcG-KATy-7" style="rounded=0;orthogonalLoop=1;jettySize=auto;html=1;entryX=0.5;entryY=0.5;entryDx=0;entryDy=0;entryPerimeter=0;edgeStyle=orthogonalEdgeStyle;shadow=1;" parent="ojbe93iXSj8wPcG-KATy-1" source="ojbe93iXSj8wPcG-KATy-6" target="ojbe93iXSj8wPcG-KATy-5" edge="1">
          <mxGeometry relative="1" as="geometry">
            <Array as="points">
              <mxPoint x="765" y="240" />
            </Array>
          </mxGeometry>
        </mxCell>
        <mxCell id="ojbe93iXSj8wPcG-KATy-8" value="Solicita&lt;div&gt;imÃ¡genes&lt;/div&gt;&lt;div&gt;de&lt;/div&gt;&lt;div&gt;zona especÃ­fica&lt;/div&gt;" style="edgeLabel;html=1;align=center;verticalAlign=middle;resizable=0;points=[];shadow=1;labelBackgroundColor=none;labelBorderColor=none;textShadow=1;" parent="ojbe93iXSj8wPcG-KATy-7" vertex="1" connectable="0">
          <mxGeometry x="-0.3947" y="-5" relative="1" as="geometry">
            <mxPoint x="2" y="-25" as="offset" />
          </mxGeometry>
        </mxCell>
        <mxCell id="ojbe93iXSj8wPcG-KATy-9" style="edgeStyle=orthogonalEdgeStyle;rounded=0;orthogonalLoop=1;jettySize=auto;html=1;entryX=0.988;entryY=0.493;entryDx=0;entryDy=0;entryPerimeter=0;shadow=1;" parent="ojbe93iXSj8wPcG-KATy-1" source="ojbe93iXSj8wPcG-KATy-5" target="ojbe93iXSj8wPcG-KATy-33" edge="1">
          <mxGeometry relative="1" as="geometry">
            <Array as="points">
              <mxPoint x="631" y="190" />
              <mxPoint x="631" y="190" />
            </Array>
          </mxGeometry>
        </mxCell>
        <mxCell id="ojbe93iXSj8wPcG-KATy-10" value="Genera&amp;nbsp;&lt;div&gt;imÃ¡genes&lt;/div&gt;" style="edgeLabel;html=1;align=center;verticalAlign=middle;resizable=0;points=[];shadow=1;labelBackgroundColor=none;textShadow=1;" parent="ojbe93iXSj8wPcG-KATy-9" vertex="1" connectable="0">
          <mxGeometry x="-0.0049" y="-2" relative="1" as="geometry">
            <mxPoint x="27" y="2" as="offset" />
          </mxGeometry>
        </mxCell>
        <mxCell id="ojbe93iXSj8wPcG-KATy-11" value="Google&lt;div&gt;&amp;nbsp;maps&lt;/div&gt;" style="verticalAlign=top;align=center;spacingTop=8;spacingLeft=2;spacingRight=12;shape=cube;size=10;direction=south;fontStyle=4;html=1;whiteSpace=wrap;shadow=1;fillColor=#e6d0de;strokeColor=#996185;gradientColor=#d5739d;" parent="ojbe93iXSj8wPcG-KATy-1" vertex="1">
          <mxGeometry x="410" y="410" width="95" height="50" as="geometry" />
        </mxCell>
        <mxCell id="ojbe93iXSj8wPcG-KATy-12" value="Ecosistema interno" style="text;strokeColor=none;fillColor=none;html=1;fontSize=24;fontStyle=1;verticalAlign=middle;align=left;shadow=1;" parent="ojbe93iXSj8wPcG-KATy-1" vertex="1">
          <mxGeometry x="20" y="20" width="100" height="40" as="geometry" />
        </mxCell>
        <mxCell id="ojbe93iXSj8wPcG-KATy-13" value="GeomÃ¡tica" style="text;align=center;fontStyle=1;verticalAlign=middle;spacingLeft=3;spacingRight=3;strokeColor=none;rotatable=0;points=[[0,0.5],[1,0.5]];portConstraint=eastwest;html=1;shadow=1;" parent="ojbe93iXSj8wPcG-KATy-1" vertex="1">
          <mxGeometry x="590" y="54" width="80" height="26" as="geometry" />
        </mxCell>
        <mxCell id="ojbe93iXSj8wPcG-KATy-14" value="DDSI" style="text;align=center;fontStyle=1;verticalAlign=middle;spacingLeft=3;spacingRight=3;strokeColor=none;rotatable=0;points=[[0,0.5],[1,0.5]];portConstraint=eastwest;html=1;shadow=1;" parent="ojbe93iXSj8wPcG-KATy-1" vertex="1">
          <mxGeometry x="270" y="58" width="80" height="26" as="geometry" />
        </mxCell>
        <mxCell id="ojbe93iXSj8wPcG-KATy-15" value="Areas verdes" style="text;align=center;fontStyle=1;verticalAlign=middle;spacingLeft=3;spacingRight=3;strokeColor=none;rotatable=0;points=[[0,0.5],[1,0.5]];portConstraint=eastwest;html=1;shadow=1;" parent="ojbe93iXSj8wPcG-KATy-1" vertex="1">
          <mxGeometry x="720" y="54" width="80" height="26" as="geometry" />
        </mxCell>
        <mxCell id="ojbe93iXSj8wPcG-KATy-16" value="Ecosistema externo" style="text;strokeColor=none;fillColor=none;html=1;fontSize=24;fontStyle=1;verticalAlign=middle;align=left;shadow=1;sketch=1;curveFitting=1;jiggle=2;rounded=0;" parent="ojbe93iXSj8wPcG-KATy-1" vertex="1">
          <mxGeometry x="20" y="415" width="100" height="40" as="geometry" />
        </mxCell>
        <mxCell id="ojbe93iXSj8wPcG-KATy-17" value="Plataforma" style="verticalAlign=top;align=left;spacingTop=8;spacingLeft=2;spacingRight=12;shape=cube;size=10;direction=south;fontStyle=4;html=1;whiteSpace=wrap;shadow=1;fillColor=#f5f5f5;fontColor=#333333;strokeColor=#666666;" parent="ojbe93iXSj8wPcG-KATy-1" vertex="1">
          <mxGeometry x="20" y="84" width="530" height="266" as="geometry" />
        </mxCell>
        <mxCell id="ojbe93iXSj8wPcG-KATy-18" value="Orquestador de procesos" style="verticalAlign=top;align=left;spacingTop=8;spacingLeft=2;spacingRight=12;shape=cube;size=10;direction=south;fontStyle=4;html=1;whiteSpace=wrap;shadow=1;fillColor=#dae8fc;strokeColor=#6c8ebf;" parent="ojbe93iXSj8wPcG-KATy-1" vertex="1">
          <mxGeometry x="30" y="124" width="500" height="216" as="geometry" />
        </mxCell>
        <mxCell id="ojbe93iXSj8wPcG-KATy-19" style="edgeStyle=orthogonalEdgeStyle;rounded=0;orthogonalLoop=1;jettySize=auto;html=1;shadow=1;" parent="ojbe93iXSj8wPcG-KATy-1" source="ojbe93iXSj8wPcG-KATy-21" target="ojbe93iXSj8wPcG-KATy-22" edge="1">
          <mxGeometry relative="1" as="geometry" />
        </mxCell>
        <mxCell id="ojbe93iXSj8wPcG-KATy-20" value="Guarda&lt;div&gt;imÃ¡genes&lt;/div&gt;" style="edgeLabel;html=1;align=center;verticalAlign=middle;resizable=0;points=[];shadow=1;labelBackgroundColor=none;" parent="ojbe93iXSj8wPcG-KATy-19" vertex="1" connectable="0">
          <mxGeometry x="-0.1897" y="-1" relative="1" as="geometry">
            <mxPoint x="-6" y="-19" as="offset" />
          </mxGeometry>
        </mxCell>
        <mxCell id="ojbe93iXSj8wPcG-KATy-21" value="Scrapper" style="verticalAlign=top;align=center;spacingTop=8;spacingLeft=2;spacingRight=12;shape=cube;size=10;direction=south;fontStyle=4;html=1;whiteSpace=wrap;shadow=1;fillColor=#dae8fc;strokeColor=#6c8ebf;gradientColor=#7ea6e0;" parent="ojbe93iXSj8wPcG-KATy-1" vertex="1">
          <mxGeometry x="410" y="160" width="90" height="50" as="geometry" />
        </mxCell>
        <mxCell id="ojbe93iXSj8wPcG-KATy-22" value="Repositorio&lt;div&gt;imÃ¡genes&lt;/div&gt;" style="verticalAlign=top;align=center;spacingTop=8;spacingLeft=2;spacingRight=12;shape=cube;size=10;direction=south;fontStyle=4;html=1;whiteSpace=wrap;shadow=1;fillColor=#d5e8d4;strokeColor=#82b366;gradientColor=#97d077;" parent="ojbe93iXSj8wPcG-KATy-1" vertex="1">
          <mxGeometry x="230" y="160" width="95" height="50" as="geometry" />
        </mxCell>
        <mxCell id="ojbe93iXSj8wPcG-KATy-23" style="edgeStyle=orthogonalEdgeStyle;rounded=0;orthogonalLoop=1;jettySize=auto;html=1;shadow=1;" parent="ojbe93iXSj8wPcG-KATy-1" source="ojbe93iXSj8wPcG-KATy-27" target="ojbe93iXSj8wPcG-KATy-22" edge="1">
          <mxGeometry relative="1" as="geometry" />
        </mxCell>
        <mxCell id="ojbe93iXSj8wPcG-KATy-24" value="Realiza&lt;div&gt;detecciones&lt;/div&gt;" style="edgeLabel;html=1;align=center;verticalAlign=middle;resizable=0;points=[];shadow=1;labelBackgroundColor=none;" parent="ojbe93iXSj8wPcG-KATy-23" vertex="1" connectable="0">
          <mxGeometry x="-0.0347" y="3" relative="1" as="geometry">
            <mxPoint y="18" as="offset" />
          </mxGeometry>
        </mxCell>
        <mxCell id="ojbe93iXSj8wPcG-KATy-25" style="edgeStyle=orthogonalEdgeStyle;rounded=0;orthogonalLoop=1;jettySize=auto;html=1;shadow=1;" parent="ojbe93iXSj8wPcG-KATy-1" source="ojbe93iXSj8wPcG-KATy-27" target="ojbe93iXSj8wPcG-KATy-28" edge="1">
          <mxGeometry relative="1" as="geometry" />
        </mxCell>
        <mxCell id="ojbe93iXSj8wPcG-KATy-26" value="Guarda&lt;div&gt;coordenadas&lt;/div&gt;&lt;div&gt;palmeras&lt;/div&gt;" style="edgeLabel;html=1;align=center;verticalAlign=middle;resizable=0;points=[];shadow=1;labelBorderColor=none;textShadow=1;labelBackgroundColor=none;" parent="ojbe93iXSj8wPcG-KATy-25" vertex="1" connectable="0">
          <mxGeometry x="-0.2857" relative="1" as="geometry">
            <mxPoint x="33" y="5" as="offset" />
          </mxGeometry>
        </mxCell>
        <mxCell id="ojbe93iXSj8wPcG-KATy-27" value="Modelo IA" style="verticalAlign=top;align=center;spacingTop=8;spacingLeft=2;spacingRight=12;shape=cube;size=10;direction=south;fontStyle=4;html=1;whiteSpace=wrap;shadow=1;fillColor=#ffcd28;strokeColor=#d79b00;gradientColor=#ffa500;" parent="ojbe93iXSj8wPcG-KATy-1" vertex="1">
          <mxGeometry x="40" y="160" width="95" height="50" as="geometry" />
        </mxCell>
        <mxCell id="ojbe93iXSj8wPcG-KATy-28" value="Base de datos" style="verticalAlign=top;align=center;spacingTop=8;spacingLeft=2;spacingRight=12;shape=cube;size=10;direction=south;fontStyle=4;html=1;whiteSpace=wrap;shadow=1;fillColor=#fff2cc;strokeColor=#d6b656;gradientColor=#ffd966;" parent="ojbe93iXSj8wPcG-KATy-1" vertex="1">
          <mxGeometry x="40" y="280" width="95" height="50" as="geometry" />
        </mxCell>
        <mxCell id="ojbe93iXSj8wPcG-KATy-29" value="AplicaciÃ³n&lt;div&gt;web&lt;/div&gt;" style="verticalAlign=top;align=center;spacingTop=8;spacingLeft=2;spacingRight=12;shape=cube;size=10;direction=south;fontStyle=4;html=1;whiteSpace=wrap;shadow=1;fillColor=#f8cecc;strokeColor=#b85450;gradientColor=#ea6b66;" parent="ojbe93iXSj8wPcG-KATy-1" vertex="1">
          <mxGeometry x="410" y="280" width="95" height="50" as="geometry" />
        </mxCell>
        <mxCell id="ojbe93iXSj8wPcG-KATy-30" style="edgeStyle=orthogonalEdgeStyle;rounded=0;orthogonalLoop=1;jettySize=auto;html=1;entryX=0.504;entryY=0.006;entryDx=0;entryDy=0;entryPerimeter=0;shadow=1;" parent="ojbe93iXSj8wPcG-KATy-1" source="ojbe93iXSj8wPcG-KATy-29" target="ojbe93iXSj8wPcG-KATy-28" edge="1">
          <mxGeometry relative="1" as="geometry" />
        </mxCell>
        <mxCell id="ojbe93iXSj8wPcG-KATy-31" value="Obtiene&lt;div&gt;coordenadas&lt;/div&gt;&lt;div&gt;palmeras&lt;/div&gt;" style="edgeLabel;html=1;align=center;verticalAlign=middle;resizable=0;points=[];shadow=1;labelBackgroundColor=none;textShadow=1;" parent="ojbe93iXSj8wPcG-KATy-30" vertex="1" connectable="0">
          <mxGeometry x="0.0935" y="1" relative="1" as="geometry">
            <mxPoint x="11" y="-26" as="offset" />
          </mxGeometry>
        </mxCell>
        <mxCell id="ojbe93iXSj8wPcG-KATy-32" value="" style="group;shadow=0;fillColor=#bac8d3;strokeColor=none;container=0;" parent="ojbe93iXSj8wPcG-KATy-1" vertex="1" connectable="0">
          <mxGeometry x="570" y="80" width="120" height="96" as="geometry" />
        </mxCell>
        <mxCell id="ojbe93iXSj8wPcG-KATy-35" style="edgeStyle=none;rounded=0;orthogonalLoop=1;jettySize=auto;html=1;shadow=1;" parent="ojbe93iXSj8wPcG-KATy-1" source="ojbe93iXSj8wPcG-KATy-6" target="ojbe93iXSj8wPcG-KATy-29" edge="1">
          <mxGeometry relative="1" as="geometry" />
        </mxCell>
        <mxCell id="ojbe93iXSj8wPcG-KATy-36" value="Consulta&lt;div&gt;resultados&amp;nbsp;&lt;/div&gt;&lt;div&gt;del vuelo&lt;/div&gt;" style="edgeLabel;html=1;align=center;verticalAlign=middle;resizable=0;points=[];shadow=1;labelBorderColor=none;textShadow=1;labelBackgroundColor=none;" parent="ojbe93iXSj8wPcG-KATy-35" vertex="1" connectable="0">
          <mxGeometry x="-0.2762" y="3" relative="1" as="geometry">
            <mxPoint x="18" y="22" as="offset" />
          </mxGeometry>
        </mxCell>
        <mxCell id="ojbe93iXSj8wPcG-KATy-37" style="edgeStyle=none;rounded=0;orthogonalLoop=1;jettySize=auto;html=1;startArrow=classic;startFill=1;shadow=1;" parent="ojbe93iXSj8wPcG-KATy-1" source="ojbe93iXSj8wPcG-KATy-29" target="ojbe93iXSj8wPcG-KATy-11" edge="1">
          <mxGeometry relative="1" as="geometry" />
        </mxCell>
        <mxCell id="ojbe93iXSj8wPcG-KATy-38" value="Genera&lt;div&gt;capa&lt;/div&gt;" style="edgeLabel;html=1;align=center;verticalAlign=middle;resizable=0;points=[];shadow=1;" parent="ojbe93iXSj8wPcG-KATy-37" vertex="1" connectable="0">
          <mxGeometry x="0.0992" y="-2" relative="1" as="geometry">
            <mxPoint as="offset" />
          </mxGeometry>
        </mxCell>
        <mxCell id="ojbe93iXSj8wPcG-KATy-39" value="" style="endArrow=none;dashed=1;html=1;dashPattern=1 3;strokeWidth=2;rounded=0;sketch=1;curveFitting=1;jiggle=2;shadow=1;" parent="ojbe93iXSj8wPcG-KATy-1" edge="1">
          <mxGeometry width="50" height="50" relative="1" as="geometry">
            <mxPoint x="800" y="400" as="sourcePoint" />
            <mxPoint x="800" y="80" as="targetPoint" />
          </mxGeometry>
        </mxCell>
        <mxCell id="ojbe93iXSj8wPcG-KATy-40" style="edgeStyle=orthogonalEdgeStyle;rounded=0;orthogonalLoop=1;jettySize=auto;html=1;shadow=1;" parent="ojbe93iXSj8wPcG-KATy-1" source="ojbe93iXSj8wPcG-KATy-21" target="ojbe93iXSj8wPcG-KATy-34" edge="1">
          <mxGeometry relative="1" as="geometry">
            <Array as="points">
              <mxPoint x="600" y="185" />
            </Array>
          </mxGeometry>
        </mxCell>
        <mxCell id="ojbe93iXSj8wPcG-KATy-41" value="Obtiene&lt;div&gt;imÃ¡genes&lt;/div&gt;" style="edgeLabel;html=1;align=center;verticalAlign=middle;resizable=0;points=[];shadow=1;labelBackgroundColor=none;textShadow=1;" parent="ojbe93iXSj8wPcG-KATy-40" vertex="1" connectable="0">
          <mxGeometry x="0.2566" relative="1" as="geometry">
            <mxPoint x="10" y="15" as="offset" />
          </mxGeometry>
        </mxCell>
        <mxCell id="ojbe93iXSj8wPcG-KATy-33" value="SIG" style="verticalAlign=top;align=left;spacingTop=8;spacingLeft=2;spacingRight=12;shape=cube;size=10;direction=south;fontStyle=4;html=1;whiteSpace=wrap;shadow=1;fillColor=none;strokeColor=#23445d;" parent="ojbe93iXSj8wPcG-KATy-1" vertex="1">
          <mxGeometry x="570" y="80" width="120" height="96" as="geometry" />
        </mxCell>
        <mxCell id="ojbe93iXSj8wPcG-KATy-34" value="MonteviMap" style="verticalAlign=top;align=center;spacingTop=8;spacingLeft=2;spacingRight=12;shape=cube;size=10;direction=south;fontStyle=4;html=1;whiteSpace=wrap;shadow=1;fillColor=#f5f5f5;gradientColor=#b3b3b3;strokeColor=#666666;" parent="ojbe93iXSj8wPcG-KATy-1" vertex="1">
          <mxGeometry x="580" y="115" width="95" height="50" as="geometry" />
        </mxCell>
      </root>
    </mxGraphModel>
  </diagram>
</mxfile>
